<svg xmlns="http://www.w3.org/2000/svg" viewBox="0 0 800 480" width="800" height="480" font-family="Helvetica Neue,Helvetica,Arial,sans-serif" style="background:#fff"><rect width="800" height="480" fill="#fff"/><rect width="800" height="70" fill="#000"/><text x="16" y="35" font-size="44" font-weight="700" fill="#fff" dominant-baseline="central">TK3</text><text x="215" y="35" font-size="40" font-weight="700" fill="#fff" dominant-baseline="central">IST → JFK</text><text x="784" y="22" font-size="28" font-weight="700" fill="#fff" text-anchor="end" dominant-baseline="central">CRUISE</text><text x="784" y="52" font-size="18" fill="#fff" text-anchor="end" dominant-baseline="central">B77W · TC-JJJ · THY3</text><defs><pattern id="sea" width="6" height="6" patternUnits="userSpaceOnUse"><rect width="1.5" height="1.5" fill="#000"/></pattern></defs><clipPath id="m"><rect x="0" y="72" width="470" height="328"/></clipPath><g clip-path="url(#m)"><rect x="0" y="72" width="470" height="328" fill="url(#sea)"/><path d="M-35.1,275.5 L-29.7,275.5 L-21.6,275.5 L-13.5,275.5 L-5.4,275.5 L2.7,275.4 L10.8,275.4 L18.9,275.4 L27.0,275.4 L28.9,270.0 L30.7,267.4 L33.1,268.3 L34.4,268.2 L35.9,266.9 L37.8,266.2 L39.0,268.2 L40.2,266.8 L40.2,265.3 L41.8,264.0 L43.1,263.5 L42.7,261.5 L42.8,260.1 L44.9,257.4 L47.4,255.7 L48.5,253.0 L50.0,251.1 L50.9,249.1 L50.6,245.8 L51.0,243.2 L51.6,240.3 L53.0,237.8 L55.2,235.0 L55.7,231.3 L56.3,227.4 L59.0,223.6 L62.0,219.4 L63.7,216.9 L66.8,212.5 L68.9,209.3 L70.0,207.9 L71.2,206.2 L73.1,206.7 L74.9,207.2 L74.7,209.7 L75.0,211.5 L77.1,213.3 L79.2,213.5 L82.4,212.1 L86.0,211.1 L88.0,210.3 L89.3,209.2 L90.8,209.5 L93.5,211.5 L96.6,214.5 L99.1,216.9 L99.2,221.0 L99.2,225.4 L99.3,230.0 L99.3,233.4 L99.4,237.9 L99.4,241.5 L99.5,246.2 L99.6,248.7 L99.7,250.5 L99.8,251.8 L99.4,253.2 L99.2,255.1 L100.6,256.2 L102.0,257.4 L103.2,258.1 L104.5,258.3 L106.4,258.6 L106.6,260.7 L105.3,261.5 L105.5,263.0 L106.5,265.0 L105.8,266.9 L106.0,268.6 L107.7,270.7 L109.2,270.9 L110.7,270.2 L112.4,270.8 L112.8,273.1 L113.2,275.9 L112.6,277.2 L112.7,278.8 L114.5,279.3 L111.1,284.8 L107.7,284.2 L105.9,285.3 L104.0,285.6 L103.2,287.5 L100.7,287.8 L99.4,287.3 L97.2,291.0 L95.7,292.0 L94.3,293.0 L93.5,291.4 L93.1,290.0 L91.5,289.3 L90.0,289.5 L88.1,291.3 L86.6,289.5 L86.0,291.2 L85.2,293.1 L85.4,295.2 L85.0,296.5 L83.5,295.1 L81.3,294.2 L79.6,294.2 L81.6,291.3 L80.3,291.2 L80.5,289.4 L80.5,287.7 L78.9,290.1 L76.7,291.6 L76.8,294.0 L74.7,298.9 L74.6,301.1 L73.2,302.7 L71.5,304.2 L69.2,303.8 L67.5,305.0 L66.6,306.5 L65.4,304.9 L64.4,307.0 L63.5,305.3 L63.2,304.0 L61.7,308.0 L60.9,306.7 L60.5,309.3 L59.0,308.9 L57.0,309.8 L57.1,307.9 L55.3,308.5 L53.0,310.4 L51.2,313.1 L52.5,314.4 L49.5,318.5 L46.3,322.2 L44.0,328.2 L42.2,330.0 L41.4,333.7 L40.4,336.9 L40.9,338.4 L41.3,339.9 L42.2,341.3 L43.7,341.2 L44.6,342.6 L41.9,344.1 L40.3,344.6 L39.5,346.2 L38.4,348.0 L36.1,350.9 L40.6,352.7 L42.1,353.8 L44.5,359.1 L43.7,360.6 L45.8,361.9 L46.5,365.8 L48.2,367.1 L50.7,367.9 L53.8,366.7 L56.4,365.1 L56.4,363.8 L54.7,360.8 L54.3,359.4 L53.1,358.4 L51.9,358.2 L53.4,357.5 L56.9,361.3 L57.6,365.6 L57.8,368.4 L55.3,369.3 L48.6,370.7 L47.1,372.0 L43.7,373.3 L43.7,371.3 L43.5,368.4 L37.5,372.9 L35.5,373.2 L33.7,374.6 L33.1,370.3 L34.1,367.4 L31.8,369.2 L30.6,366.9 L30.0,368.6 L28.7,370.5 L28.4,375.6 L26.9,377.7 L22.1,379.1 L18.9,378.8 L16.1,379.2 L12.4,380.2 L10.4,379.6 L8.3,380.6 L1.1,380.9 L-0.4,380.4 L-2.3,382.3 L-5.4,383.5 L-13.2,387.8 L-14.9,389.4 L-17.0,391.8 L-18.4,393.2 L-20.3,394.7 L-20.3,393.0 L-19.5,390.9 L-18.8,386.9 L-19.0,383.6 L-19.9,382.3 L-19.7,384.6 L-19.5,388.5 L-19.9,390.8 L-21.8,395.3 L-23.6,397.2 L-24.9,398.3 L-26.4,401.7 L-26.0,403.7 L-22.3,404.5 L-20.8,405.3 L-20.5,407.3 L-20.8,409.5 L-21.4,411.8 L-21.9,414.6 L-22.3,418.8 L-22.9,422.6 L-22.6,416.8 L-23.6,418.4 L-24.7,424.3 L-26.3,427.5 L-27.7,429.7 L-29.2,429.3 L-28.9,431.1 L-29.6,433.9 L-30.5,435.1 L-32.6,435.9 L-33.1,437.8 L-36.8,444.8 L-39.3,446.5 L-39.2,443.5 L-38.8,440.7 L-40.3,439.5 L-41.7,438.9 L-43.4,438.9 L-45.2,436.8 L-47.6,435.2 L-50.9,431.0 L-50.9,427.8 L-49.9,424.7 L-49.0,422.5 L-47.6,421.4 L-43.7,420.3 L-42.8,418.5 L-42.2,417.1 L-44.1,419.6 L-47.0,420.4 L-48.5,421.4 L-49.8,422.8 L-50.5,424.6 L-52.2,426.7 L-52.1,428.2 L-51.9,431.4 L-50.9,433.4 L-48.8,436.9 L-48.4,442.2 L-46.8,445.8 L-44.4,449.9 L-42.5,451.1 L-42.4,452.6 L-43.3,455.2 L-42.2,456.7 L-41.5,458.8 L-41.5,461.0 L-41.8,462.2 L-43.0,461.6 L-43.5,464.6 L-43.9,465.8 L-45.1,466.2 L-46.4,469.4 L-47.6,471.2 L-52.4,483.4 L-52.2,485.5 L-54.3,486.6 L-55.7,487.9 L-56.5,489.2 L-57.4,492.8 L-58.9,496.9 L-59.9,495.2 L-60.1,493.8 L-59.7,490.0 L-58.0,483.7 L-56.2,479.9 L-54.7,478.0 L-53.6,474.3 L-55.1,473.7 L-57.3,473.8 L-56.9,472.1 L-56.2,470.6 L-57.4,469.0 L-58.8,468.2 L-58.0,467.0 L-57.6,465.6 L-57.8,464.0 L-57.5,462.8 L-59.0,464.3 L-60.3,463.9 L-61.2,465.1 L-62.5,464.1 L-64.3,462.8 L-65.3,460.7 L-65.9,459.1 L-65.3,456.1 L-64.1,455.6 L-62.4,456.0 L-60.2,456.0 L-63.6,453.1 L-64.3,451.6 L-65.6,451.2 L-66.2,452.6 L-66.0,449.9 L-63.5,449.0 L-63.9,447.2 L-66.6,447.4 L-66.6,446.1 L-66.3,444.5 L-65.0,444.5 L-62.8,442.5 L-64.4,443.0 L-64.8,439.4 L-63.2,435.9 L-61.6,434.4 L-59.7,434.5 L-57.8,434.2 L-59.0,433.6 L-60.3,433.2 L-59.3,431.8 L-57.7,430.4 L-59.6,430.6 L-59.4,428.3 L-61.4,429.0 L-61.8,431.5 L-62.9,433.4 L-64.4,434.1 L-65.0,432.4 L-65.2,434.9 L-66.6,433.4 L-67.2,435.7 L-68.0,437.7 L-71.3,437.2 L-69.7,440.3 L-68.5,441.3 L-68.4,442.7 L-69.4,443.9 L-70.8,442.9 L-70.3,444.8 L-69.8,446.4 L-70.3,447.7 L-70.2,449.3 L-70.3,450.8 L-70.6,452.1 L-69.9,458.0 L-69.1,459.6 L-68.3,461.2 L-67.9,462.6 L-70.1,461.6 L-71.3,460.7 L-72.8,457.8 L-73.4,455.8 L-73.2,457.9 L-72.7,460.2 L-68.2,465.4 L-67.3,467.5 L-66.7,469.0 L-66.8,470.6 L-69.0,468.1 L-71.7,466.6 L-75.2,465.6 L-77.1,462.0 L-77.1,463.5 L-77.5,464.8 L-78.7,463.2 L-79.4,461.9 L-79.7,460.5 L-81.1,460.6 L-82.7,461.8 L-84.2,461.5 L-84.3,459.1 L-83.9,457.8 L-82.3,454.7 L-80.7,453.1 L-80.0,451.1 L-80.2,447.9 L-80.5,451.1 L-81.4,452.7 L-82.8,453.9 L-84.7,456.1 L-85.2,458.1 L-85.7,461.8 L-85.0,463.1 L-81.8,462.6 L-80.6,462.9 L-77.8,467.5 L-72.7,469.2 L-70.9,470.3 L-69.4,472.7 L-67.1,474.0 L-65.3,476.0 L-65.3,477.3 L-65.9,478.8 L-66.1,480.9 L-66.9,482.2 L-68.7,482.3 L-75.6,474.8 L-78.5,470.3 L-81.0,468.3 L-78.2,472.1 L-76.7,474.7 L-74.1,478.4 L-72.3,479.9 L-70.9,482.3 L-69.6,483.5 L-66.1,485.1 L-67.3,486.3 L-65.4,487.2 L-65.1,489.1 L-65.3,491.1 L-68.0,490.3 L-68.1,491.8 L-69.0,493.5 L-70.7,492.5 L-74.9,487.0 L-74.6,488.6 L-72.1,492.1 L-69.9,494.2 L-68.0,495.2 L-66.6,497.0 L-65.7,499.7 L-68.0,501.5 L-70.1,499.2 L-71.9,497.2 L-72.5,495.0 L-73.9,495.1 L-79.8,492.3 L-84.5,491.9 L-79.7,493.6 L-78.2,494.9 L-75.1,496.0 L-73.3,496.3 L-72.5,499.9 L-70.0,502.3 L-69.7,504.1 L-68.0,504.3 L-65.0,502.5 L-63.0,503.2 L-60.2,503.7 L-59.5,505.1 L-59.1,507.8 L-58.1,510.9 L-55.5,522.9 L-51.6,532.8 L-51.1,534.5 L-52.0,533.0 L-54.9,526.5 L-56.5,521.8 L-58.1,513.4 L-58.6,511.6 L-59.4,513.3 L-60.1,516.0 L-59.8,517.3 L-58.7,518.6 L-57.6,521.9 L-56.7,526.2 L-57.9,524.5 L-59.2,523.5 L-61.3,522.8 L-63.1,521.5 L-62.9,523.3 L-63.1,525.3 L-64.5,524.7 L-64.6,526.1 L-66.4,525.5 L-67.7,525.6 L-68.5,527.5 L-71.1,529.0 L-73.4,527.3 L-74.2,525.2 L-74.5,522.9 L-74.6,525.6 L-74.2,528.5 L-74.3,530.6 L-72.1,531.0 L-70.0,530.6 L-67.2,530.7 L-65.3,530.3 L-61.6,530.2 L-61.4,532.8 L-61.7,535.4 L-61.8,538.1 L-60.2,537.2 L-59.8,532.3 L-57.4,530.5 L-55.8,532.2 L-55.5,533.8 L-55.2,536.0 L-55.8,539.4 L-59.5,543.3 L-62.2,546.9 L-63.6,547.6 L-65.6,547.2 L-67.8,546.3 L-69.7,546.4 L-70.6,543.3 L-72.1,542.7 L-72.5,544.8 L-74.6,545.4 L-77.5,544.5 L-80.4,542.7 L-79.2,544.7 L-71.8,548.3 L-70.2,550.0 L-71.2,551.5 L-72.0,553.3 L-72.1,554.7 L-75.4,557.9 L-76.9,557.5 L-81.0,553.2 L-79.2,556.9 L-77.7,558.4 L-74.7,559.3 L-69.1,557.9 L-67.2,559.4 L-68.8,562.0 L-70.3,563.9 L-72.2,564.1 L-74.0,564.6 L-74.5,565.9 L-75.7,566.0 L-77.6,566.0 L-80.6,566.1 L-82.3,565.8 L-84.5,568.4 L-86.6,568.3 L-87.1,566.2 L-87.7,569.1 L-87.0,571.0 L-89.7,573.1 L-92.3,575.7 L-94.2,577.8 L-96.4,581.6 L-96.9,584.4 L-97.7,587.5 L-97.8,586.1 L-97.7,583.7 L-98.2,581.0 L-98.5,586.0 L-99.4,588.3 L-107.0,588.1 L-110.3,589.4 L-115.5,593.6 L-117.0,595.4 L-121.2,602.6 L-122.3,607.1 L-123.2,605.2 L-123.0,603.8 L-124.0,605.1 L-123.0,608.8 L-123.9,610.2 L-126.7,612.8 L-128.2,613.2 L-130.0,614.0 L-130.5,616.6 L-132.8,618.9 L-134.2,620.0 L-136.7,619.4 L-135.9,621.7 L-136.8,623.4 L-138.4,624.7 L-140.4,625.6 L-142.5,626.0 L-145.0,628.1 L-146.9,627.5 L-149.1,627.2 L-150.3,627.8 L-148.3,628.8 L-147.2,630.3 L-147.4,632.3 L-149.2,634.1 L-150.6,631.0 L-151.3,632.4 L-153.6,629.6 L-153.5,632.0 L-152.9,633.8 L-151.6,635.3 L-152.7,638.2 L-154.5,639.0 L-155.1,640.3 L-155.9,643.8 L-158.3,645.3 L-159.6,645.6 L-158.7,647.5 L-159.3,649.2 L-160.6,649.4 L-161.1,651.6 L-160.7,653.2 L-162.1,654.2 L-161.8,655.5 L-161.7,657.1 L-163.2,659.9 L-164.8,660.4 L-163.0,663.0 L-164.5,665.6 L-166.0,664.8 L-166.4,666.8 L-166.6,670.2 L-167.2,672.8 L-167.5,676.0 L-167.2,678.0 L-166.3,680.5 L-164.9,691.0 L-164.0,694.6 L-162.3,704.4 L-159.5,713.9 L-155.5,725.4 L-149.0,739.3 L-148.2,741.3 L-149.0,743.0 L-149.3,744.7 L-149.4,747.3 L-149.1,749.9 L-148.4,753.0 L-146.9,757.8 L-149.8,750.0 L-150.1,746.0 L-149.8,740.3 L-150.7,742.3 L-150.9,744.4 L-152.2,742.0 L-152.2,740.5 L-151.4,738.7 L-152.9,737.2 L-153.1,735.7 L-153.0,734.4 L-154.3,733.6 L-153.9,737.1 L-153.3,739.2 L-152.5,744.3 L-151.3,747.3 L-150.6,749.9 L-142.4,777.4 L-140.4,780.9 L-139.7,783.4 L-139.0,788.6 L-138.8,795.4 L-140.1,807.7 L-140.4,816.1 L-141.1,814.8 L-142.2,818.7 L-143.8,822.2 L-144.4,827.6 L-145.1,830.3 L-147.4,833.1 L-148.8,833.1 L-152.3,835.2 L-154.7,834.6 L-157.7,835.9 L-159.6,835.7 L-160.7,833.2 L-160.1,830.9 L-156.8,833.3 L-157.0,830.8 L-158.5,830.1 L-161.8,823.2 L-164.1,819.0 L-164.5,816.2 L-168.5,814.5 L-171.3,811.9 L-173.2,807.3 L-174.3,799.1 L-175.5,798.2 L-174.8,794.6 L-173.5,792.0 L-175.3,793.6 L-176.3,795.8 L-177.6,795.8 L-178.4,791.5 L-178.2,786.3 L-177.1,784.3 L-178.7,784.2 L-180.4,785.0 L-180.2,786.8 L-181.6,787.5 L-183.8,785.0 L-185.5,781.5 L-188.9,771.9 L-189.6,770.5 L-190.8,769.1 L-189.2,768.4 L-187.0,764.1 L-185.2,761.5 L-184.7,759.7 L-185.5,757.7 L-187.0,758.5 L-188.1,756.2 L-190.0,756.0 L-189.2,757.9 L-188.8,761.3 L-189.7,762.9 L-191.3,763.2 L-192.6,761.3 L-193.3,759.4 L-191.4,748.3 L-189.7,741.3 L-189.5,733.3 L-189.5,730.0 L-191.8,725.4 L-202.0,714.1 L-209.8,700.7 L-216.6,695.7 L-221.8,696.8 L-223.1,699.1 L-222.7,700.6 L-224.6,701.1 L-226.5,701.5 L-231.3,705.0 L-233.1,704.9 L-234.6,705.8 L-238.8,706.8 L-241.4,707.6 L-243.3,705.2 L-243.3,703.1 L-242.7,704.7 L-241.8,705.9 L-241.2,704.3 L-242.1,702.1 L-245.0,699.3 L-248.4,695.2 L-247.1,694.4 L-247.7,691.9 L-246.9,690.5 L-248.4,690.7 L-249.6,691.7 L-249.7,692.9 L-251.9,692.6 L-258.1,689.2 L-263.5,687.4 L-259.3,686.5 L-257.1,687.2 L-257.9,685.5 L-259.7,684.7 L-261.9,685.0 L-263.4,684.6 L-264.8,685.4 L-266.4,686.6 L-267.9,687.2 L-273.5,688.1 L-278.0,689.0 L-276.5,687.4 L-273.8,686.5 L-273.4,684.5 L-274.1,682.5 L-275.5,684.5 L-277.4,683.4 L-277.7,685.8 L-279.0,687.4 L-279.6,689.0 L-283.4,690.3 L-282.7,688.3 L-284.1,688.2 L-286.2,691.1 L-293.7,692.1 L-291.7,691.3 L-289.5,690.4 L-289.9,688.8 L-290.8,687.1 L-292.1,685.9 L-292.1,682.8 L-292.6,680.9 L-293.8,679.0 L-295.1,682.6 L-295.8,686.9 L-296.2,688.3 L-298.4,688.4 L-300.4,688.1 L-307.0,688.6 L-309.5,687.1 L-311.2,686.9 L-314.0,688.2 L-317.3,689.2 L-319.2,688.9 L-321.6,692.3 L-324.4,693.9 L-331.6,691.0 L-333.3,688.7 L-334.9,688.2 L-336.8,687.9 L-338.9,690.8 L-340.5,694.7 L-338.0,696.8 L-335.8,697.8 L-332.3,696.9 L-330.4,695.1 L-328.8,695.1 L-327.3,693.8 L-326.0,694.5 L-326.9,696.4 L-328.1,697.3 L-327.5,700.6 L-325.3,701.3 L-323.9,698.5 L-322.6,697.0 L-320.8,697.3 L-320.8,699.2 L-320.0,700.8 L-320.0,703.1 L-321.9,704.7 L-323.3,705.0 L-324.5,706.4 L-325.1,707.8 L-326.3,707.8 L-327.0,709.3 L-326.1,711.6 L-324.3,713.1 L-323.0,715.0 L-317.8,717.4 L-316.5,717.3 L-315.3,719.8 L-313.3,721.1 L-313.4,722.8 L-315.1,724.0 L-315.6,725.5 L-316.8,725.3 L-319.4,726.8 L-319.9,724.8 L-321.6,721.3 L-323.1,719.8 L-325.1,718.3 L-326.9,718.0 L-328.4,717.4 L-328.5,716.1 L-330.1,713.9 L-335.5,711.7 L-335.2,713.3 L-333.5,714.6 L-333.5,717.3 L-334.0,720.0 L-334.4,721.7 L-335.1,723.0 L-336.6,723.8 L-338.3,719.6 L-339.8,718.5 L-342.2,718.4 L-343.8,719.2 L-345.6,722.6 L-347.0,723.1 L-351.9,721.4 L-357.5,718.7 L-354.8,717.8 L-356.6,713.9 L-356.9,712.6 L-356.7,710.9 L-358.3,712.3 L-361.9,711.1 L-362.9,709.7 L-365.0,705.8 L-367.9,705.6 L-369.3,703.2 L-371.7,704.2 L-372.9,705.4 L-374.0,707.1 L-372.5,709.4 L-376.4,711.1 L-384.4,710.0 L-386.7,708.9 L-389.9,706.7 L-394.2,704.8 L-396.3,704.5 L-398.3,704.9 L-404.3,705.1 L-405.7,705.6 L-407.6,705.5 L-408.0,704.0 L-406.5,702.8 L-405.8,701.0 L-406.2,699.3 L-409.2,703.8 L-408.0,706.4 L-412.2,707.9 L-421.4,713.1 L-425.0,716.0 L-420.5,711.4 L-422.0,710.8 L-424.5,711.7 L-424.3,708.3 L-424.7,705.7 L-426.4,705.6 L-427.5,707.7 L-429.3,706.7 L-429.5,711.8 L-428.4,713.8 L-427.5,716.4 L-430.0,719.5 L-432.4,722.1 L-432.6,724.6 L-435.0,727.8 L-437.2,729.7 L-442.4,734.0 L-443.9,734.9 L-446.3,737.0 L-449.5,738.5 L-452.6,740.9 L-451.7,739.2 L-449.3,737.2 L-451.4,737.5 L-454.5,736.5 L-456.4,736.5 L-457.8,738.2 L-459.3,736.7 L-460.3,734.8 L-461.6,735.0 L-459.3,741.2 L-457.3,742.1 L-458.6,743.6 L-460.0,744.7 L-462.3,745.4 L-464.2,743.1 L-464.6,746.0 L-464.8,748.8 L-466.5,750.6 L-467.3,748.7 L-468.9,750.4 L-470.4,750.5 L-471.6,752.1 L-469.2,752.4 L-470.0,755.4 L-471.9,758.4 L-473.5,759.1 L-475.8,758.7 L-474.2,764.3 L-476.0,771.4 L-477.1,774.0 L-478.7,774.4 L-481.8,772.1 L-483.5,770.3 L-482.0,775.1 L-478.0,776.5 L-477.8,778.3 L-477.8,779.9 L-478.6,781.7 L-479.3,784.1 L-478.8,785.8 L-478.2,790.0 L-477.6,791.9 L-477.0,797.7 L-476.4,800.2 L-472.7,809.5 L-471.5,809.6 L-471.4,812.5 L-474.0,813.1 L-475.4,814.7 L-477.1,814.5 L-480.0,811.9 L-484.1,810.2 L-489.6,809.6 L-493.4,808.3 L-495.4,806.3 L-497.5,805.1 L-499.6,804.7 L-501.5,803.6 L-502.9,801.8 L-505.0,800.7 L-507.7,800.2 L-509.5,798.8 L-510.8,795.5 L-511.9,789.9 L-513.3,786.5 L-516.1,782.2 L-516.4,780.9 L-516.0,778.4 L-516.3,776.6 L-517.2,775.2 L-517.4,773.6 L-516.9,772.0 L-516.9,770.0 L-517.3,767.7 L-519.0,765.3 L-522.1,762.6 L-524.8,758.8 L-526.9,753.7 L-529.1,750.1 L-531.2,748.2 L-532.7,745.8 L-533.4,742.9 L-533.7,741.3 L-534.7,737.7 L-537.6,731.8 L-539.3,727.6 L-539.7,724.9 L-541.6,721.7 L-544.9,717.9 L-546.7,715.5 L-547.1,713.8 L-552.2,708.9 L-553.7,705.9 L-556.2,705.0 L-558.2,704.6 L-561.0,704.7 L-565.6,704.4 L-569.0,703.5 L-571.0,702.2 L-572.5,702.4 L-573.3,704.1 L-575.0,705.1 L-577.7,705.6 L-580.1,708.6 L-582.0,714.3 L-582.9,717.9 L-582.6,719.5 L-584.4,721.4 L-585.7,723.1 L-587.0,725.6 L-588.5,726.9 L-590.2,726.8 L-593.5,724.8 L-598.1,721.0 L-601.8,718.6 L-604.5,717.7 L-606.8,715.9 L-608.9,713.3 L-610.8,711.5 L-612.5,710.6 L-614.5,707.7 L-616.8,702.7 L-617.9,698.9 L-617.9,694.8 L-620.9,686.0 L-622.5,682.2 L-623.7,680.4 L-626.0,678.3 L-629.5,675.8 L-634.1,671.0 L-639.9,663.6 L-644.0,659.2 L-646.4,657.7 L-648.5,655.0 L-650.3,651.3 L-652.0,648.9 L-656.7,648.7 L-660.9,648.6 L-665.2,648.6 L-669.5,648.6 L-673.8,648.5 L-678.0,648.5 L-682.3,648.5 L-686.6,648.4 L-686.6,651.6 L-686.6,654.8 L-686.6,657.9 L-686.6,661.1 L-693.5,661.1 L-700.4,661.2 L-707.3,661.2 L-714.1,661.2 L-721.0,661.2 L-727.9,661.2 L-734.7,661.2 L-741.6,661.3 L-750.8,657.1 L-760.1,652.9 L-769.3,648.7 L-778.5,644.6 L-787.7,640.4 L-796.9,636.2 L-806.2,632.0 L-815.4,627.9 L-814.5,626.3 L-813.2,622.0 L-815.5,622.3 L-821.0,622.9 L-826.6,623.5 L-832.1,624.1 L-837.7,624.8 L-843.3,625.4 L-848.8,626.0 L-854.4,626.6 L-860.0,627.2 L-860.1,623.9 L-862.2,623.5 L-862.7,619.5 L-862.4,617.6 L-862.6,615.7 L-863.7,611.2 L-866.6,605.7 L-872.8,598.8 L-876.0,596.5 L-878.5,593.6 L-880.1,592.8 L-882.1,592.6 L-882.6,593.9 L-884.9,593.0 L-884.6,589.8 L-886.8,585.3 L-888.6,584.8 L-893.1,585.1 L-899.2,582.6 L-900.9,581.2 L-901.6,578.5 L-904.4,576.3 L-908.1,574.0 L-910.2,574.5 L-913.0,574.2 L-916.8,572.6 L-919.1,572.4 L-923.5,572.8 L-925.2,572.5 L-926.7,570.5 L-928.3,569.5 L-928.0,566.9 L-928.2,564.7 L-928.0,562.9 L-928.7,559.0 L-928.1,555.5 L-928.6,554.2 L-932.5,551.7 L-933.0,549.9 L-932.5,547.3 L-933.3,545.6 L-935.7,544.1 L-937.9,540.5 L-940.8,538.5 L-941.9,535.3 L-943.7,533.2 L-944.3,531.5 L-948.2,525.1 L-952.3,520.1 L-953.0,517.2 L-953.1,513.3 L-951.5,510.9 L-950.6,508.8 L-950.7,506.8 L-951.0,505.4 L-952.4,502.9 L-957.9,501.5 L-962.4,495.4 L-962.6,490.7 L-964.4,485.9 L-964.4,482.8 L-964.7,479.4 L-963.4,478.7 L-962.3,480.3 L-961.9,482.7 L-960.5,484.5 L-959.1,485.3 L-957.9,487.1 L-956.1,487.7 L-957.1,485.9 L-957.8,483.5 L-959.0,480.6 L-960.5,478.9 L-961.2,475.9 L-962.2,474.1 L-960.8,472.8 L-958.9,471.9 L-956.4,471.6 L-949.2,472.0 L-947.7,471.3 L-946.4,471.5 L-948.5,470.9 L-949.8,470.7 L-952.4,470.9 L-954.6,469.6 L-957.7,471.2 L-961.3,469.2 L-964.1,469.9 L-964.3,474.3 L-963.8,477.6 L-966.1,476.6 L-967.9,475.8 L-969.5,474.5 L-971.7,472.3 L-974.1,473.3 L-973.5,470.3 L-973.7,466.6 L-971.8,469.5 L-972.4,467.5 L-973.9,465.2 L-976.5,460.3 L-979.8,457.9 L-982.4,454.0 L-987.8,447.4 L-988.1,441.7 L-990.1,434.4 L-989.3,430.3 L-989.4,427.4 L-990.3,422.9 L-991.3,420.5 L-995.7,413.9 L-999.9,409.5 L-1000.5,406.1 L-1000.8,402.8 L-999.9,399.7 L-999.1,396.6 L-997.9,397.0 L-997.6,395.6 L-997.9,394.3 L-996.2,389.3 L-996.3,384.0 L-994.9,377.6 L-995.0,375.5 L-995.9,370.9 L-996.8,368.1 L-998.3,366.2 L-997.7,363.4 L-997.7,360.6 L-1000.5,356.7 L-1001.6,351.6 L-1001.8,349.5 L-1001.5,343.7 L-1002.2,341.3 L-1004.1,337.3 L-1003.3,333.8 L-1002.4,331.7 L-1000.3,322.4 L-998.9,321.6 L-997.4,320.1 L-999.2,320.5 L-998.2,316.8 L-997.2,313.6 L-996.1,302.2 L-995.5,294.4 L-994.5,291.8 L-994.9,289.1 L-994.5,285.5 L-994.7,281.9 L-992.6,264.3 L-992.9,262.2 L-992.2,259.3 L-992.8,251.8 L-992.6,243.4 L-993.4,241.2 L-991.9,242.3 L-987.2,242.3 L-984.3,241.1 L-982.0,243.0 L-980.4,243.3 L-978.4,243.1 L-980.0,242.6 L-982.0,241.2 L-983.2,239.8 L-986.8,239.9 L-991.6,239.9 L-992.8,238.9 L-995.0,239.5 L-994.5,236.9 L-994.6,233.6 L-994.5,230.3 L-993.9,232.7 L-992.5,235.2 L-991.9,232.4 L-991.4,228.8 L-992.8,227.4 L-995.0,226.4 L-995.8,223.1 L-990.5,220.2 L-993.3,219.6 L-994.4,218.4 L-995.8,218.2 L-996.3,220.5 L-996.8,218.8 L-996.9,216.8 L-997.5,213.3 L-999.6,207.8 L-1000.9,200.6 L-1002.5,197.1 L-1005.7,193.7 L-1006.5,191.7 L-1007.2,186.7 L-1006.8,182.9 L-1007.4,180.3 L-1005.9,180.4 L-1001.9,182.5 L-997.0,184.2 L-995.5,185.4 L-993.1,186.3 L-979.9,187.6 L-977.3,186.7 L-974.6,188.7 L-972.4,188.8 L-969.8,187.1 L-969.7,188.9 L-969.1,190.6 L-967.9,192.9 L-967.5,194.4 L-969.8,198.4 L-970.4,197.1 L-975.1,203.6 L-976.7,206.9 L-976.9,208.3 L-974.7,209.1 L-972.6,207.7 L-974.5,207.9 L-975.3,206.4 L-973.8,203.4 L-972.5,202.1 L-970.5,200.6 L-968.7,197.7 L-966.5,195.6 L-966.2,193.4 L-964.6,196.2 L-964.9,197.5 L-966.7,199.1 L-966.6,201.8 L-967.8,201.9 L-966.1,204.3 L-965.5,206.1 L-965.5,207.8 L-965.9,210.9 L-967.3,211.3 L-968.7,210.6 L-969.6,213.1 L-970.5,209.9 L-972.6,211.0 L-973.3,212.3 L-973.9,214.3 L-972.5,215.5 L-970.5,215.1 L-968.9,216.1 L-966.9,215.1 L-965.2,211.4 L-963.7,210.9 L-961.6,208.7 L-962.0,204.3 L-961.9,202.2 L-962.7,200.8 L-962.2,199.0 L-962.5,197.1 L-961.1,193.9 L-959.4,190.7 L-960.9,188.7 L-962.3,186.3 L-962.2,188.5 L-964.3,187.3 L-965.0,185.4 L-963.8,183.7 L-962.5,183.4 L-964.2,180.5 L-966.0,178.9 L-967.6,178.4 L-967.5,177.2 L-965.3,177.2 L-964.4,175.9 L-964.7,172.1 L-965.3,169.5 L-967.4,169.5 L-968.7,167.0 L-970.0,163.0 L-968.0,163.0 L-959.8,163.0 L-951.5,163.0 L-943.2,163.0 L-934.9,163.0 L-926.6,163.0 L-918.3,163.0 L-910.0,163.0 L-901.7,163.0 L-893.4,163.0 L-885.1,163.0 L-876.8,163.0 L-868.6,163.0 L-860.3,163.0 L-852.0,163.0 L-843.7,163.0 L-835.4,163.0 L-827.1,163.0 L-818.8,163.0 L-810.5,163.0 L-802.2,163.0 L-793.9,163.0 L-785.6,163.0 L-777.3,163.0 L-769.1,163.0 L-760.8,163.0 L-752.5,163.0 L-744.2,163.0 L-735.9,163.0 L-727.6,163.0 L-719.3,163.0 L-711.0,163.0 L-702.7,163.0 L-694.4,163.0 L-686.1,163.0 L-677.9,163.0 L-669.6,163.0 L-661.3,163.0 L-653.0,163.0 L-644.7,163.0 L-636.4,163.0 L-628.1,163.0 L-619.8,163.0 L-611.5,163.0 L-603.2,163.0 L-594.9,163.0 L-586.6,163.0 L-578.4,163.0 L-570.1,163.0 L-561.8,163.0 L-553.5,163.0 L-545.2,163.0 L-536.9,163.0 L-528.6,163.0 L-520.3,163.0 L-512.0,163.0 L-503.7,163.0 L-495.4,163.0 L-487.2,163.0 L-478.9,163.0 L-470.6,163.0 L-462.3,163.0 L-454.0,163.0 L-445.7,163.0 L-437.4,163.0 L-432.8,163.0 L-432.7,157.1 L-432.7,152.4 L-428.5,153.0 L-427.2,153.8 L-427.0,155.5 L-426.6,159.4 L-425.8,162.7 L-424.1,166.7 L-423.9,168.2 L-422.3,170.1 L-418.3,171.2 L-411.3,172.4 L-407.3,173.9 L-406.4,175.5 L-404.5,176.2 L-401.7,175.9 L-399.8,175.2 L-398.1,173.6 L-395.8,173.3 L-393.8,173.4 L-391.8,173.5 L-387.6,175.0 L-385.6,176.0 L-382.7,177.9 L-381.1,178.7 L-380.3,180.7 L-379.4,183.2 L-378.1,183.2 L-377.1,181.7 L-374.7,181.5 L-371.4,182.5 L-368.6,185.4 L-364.5,188.1 L-362.0,189.4 L-359.4,189.4 L-356.2,188.1 L-352.7,185.5 L-350.3,185.1 L-348.8,185.4 L-347.9,187.3 L-344.2,187.8 L-338.7,188.2 L-334.2,187.7 L-332.3,190.6 L-330.5,191.1 L-328.1,190.6 L-323.7,191.0 L-321.9,191.1 L-318.3,190.4 L-316.6,189.7 L-314.2,188.4 L-311.0,186.6 L-305.4,183.6 L-300.9,182.5 L-296.7,184.7 L-293.3,186.6 L-292.0,187.3 L-288.6,189.3 L-283.7,192.1 L-278.1,195.3 L-272.6,198.5 L-267.7,201.3 L-264.3,203.2 L-263.0,204.0 L-259.2,206.2 L-255.4,208.5 L-251.7,210.7 L-247.9,213.0 L-244.1,215.3 L-240.3,217.5 L-236.6,219.8 L-232.8,222.0 L-231.8,225.8 L-230.9,229.4 L-228.7,232.1 L-226.7,234.5 L-224.3,233.4 L-222.3,232.8 L-219.5,231.9 L-218.2,232.5 L-218.3,233.8 L-218.0,237.0 L-217.9,239.3 L-217.5,241.0 L-216.3,243.3 L-215.3,245.0 L-214.1,245.4 L-211.2,244.3 L-209.3,243.9 L-206.5,245.8 L-205.4,247.6 L-207.8,252.6 L-204.0,255.0 L-199.8,257.8 L-194.8,261.0 L-191.7,263.0 L-187.6,265.8 L-186.9,269.8 L-186.3,273.2 L-185.6,278.0 L-184.8,282.8 L-184.0,287.7 L-183.2,292.8 L-182.3,298.4 L-181.6,303.4 L-180.7,308.8 L-179.6,315.9 L-180.6,318.6 L-182.8,324.6 L-184.8,330.0 L-185.0,331.5 L-186.4,339.4 L-187.5,342.6 L-189.4,344.5 L-191.3,346.3 L-193.7,349.3 L-196.4,350.9 L-197.7,351.7 L-198.5,353.1 L-199.2,356.2 L-199.1,360.9 L-196.9,364.9 L-193.7,367.2 L-190.3,369.4 L-185.4,369.4 L-181.0,366.4 L-176.4,363.3 L-172.2,360.6 L-167.3,357.3 L-162.8,354.3 L-158.0,353.2 L-151.3,351.8 L-142.8,349.9 L-138.7,347.8 L-133.4,345.0 L-127.2,341.8 L-121.9,339.1 L-119.3,337.6 L-117.4,335.9 L-116.9,334.6 L-117.5,333.1 L-118.8,332.1 L-119.1,330.3 L-119.8,329.0 L-119.7,324.2 L-120.2,322.7 L-121.9,318.9 L-118.6,317.1 L-115.5,315.6 L-113.1,314.4 L-108.0,314.2 L-103.3,314.2 L-96.7,314.3 L-91.2,314.3 L-84.8,314.3 L-81.1,314.3 L-76.1,314.3 L-73.7,309.9 L-71.6,305.9 L-69.2,302.2 L-65.0,297.8 L-63.8,297.0 L-63.1,295.2 L-60.6,293.6 L-57.8,292.0 L-56.7,290.6 L-48.6,282.0 L-44.2,278.4 L-40.7,276.5 L-38.0,275.5 L-36.1,275.6Z M7.7,388.8 L6.3,390.6 L7.5,390.8 L9.6,389.2 L12.0,387.7 L14.0,387.1 L15.6,388.0 L17.5,387.2 L19.5,386.7 L11.0,391.4 L9.3,391.9 L6.8,393.3 L4.4,394.3 L2.7,394.7 L-5.6,398.2 L-7.0,397.9 L-13.9,399.7 L-16.8,399.9 L-19.4,400.5 L-17.4,399.1 L-18.9,398.2 L-19.9,399.7 L-21.6,400.2 L-21.9,398.6 L-21.4,397.3 L-19.0,394.3 L-16.6,393.1 L-15.4,392.1 L-13.7,391.1 L-11.3,390.7 L-9.8,390.1 L-7.3,390.5 L-5.5,390.4 L-4.0,389.6 L-2.5,389.4 L1.5,389.2 L5.4,388.6 L7.0,387.6 L10.3,384.9 L12.3,384.1 L9.3,387.3 L7.7,388.8Z M91.7,294.4 L89.4,294.7 L89.4,296.2 L87.9,296.0 L87.4,293.5 L88.6,291.7 L90.7,291.4 L91.7,293.5Z M-25.0,401.9 L-25.0,399.3 L-23.3,398.0 L-22.6,399.3 L-24.0,401.3Z M46.6,377.8 L41.2,379.2 L41.7,377.9 L43.4,375.8 L46.3,376.7Z M32.3,374.5 L30.3,375.2 L31.0,372.6 L31.6,370.9 L32.3,374.5Z M56.9,380.9 L55.4,381.4 L51.9,380.3 L54.8,379.5 L55.6,377.9 L56.8,380.0Z M29.9,374.7 L29.6,372.3 L29.9,374.7Z M-23.9,425.6 L-26.2,429.9 L-23.4,423.8 L-23.9,425.6Z M83.2,298.3 L81.7,298.7 L81.7,297.3 L83.2,298.3Z M325.8,225.9 L324.0,225.8 L325.7,224.5 L325.8,225.9Z M323.5,223.8 L321.8,225.0 L321.4,223.5 L322.2,221.6 L321.2,217.3 L323.1,217.2 L322.6,220.5 L323.1,222.0 L323.5,223.8Z M-1110.8,-31.4 L-1110.5,-33.2 L-1110.7,-35.0 L-1111.4,-36.4 L-1112.2,-37.7 L-1114.4,-36.9 L-1118.3,-38.0 L-1119.5,-41.1 L-1122.9,-42.0 L-1124.7,-44.2 L-1128.4,-45.3 L-1131.3,-46.0 L-1133.6,-47.3 L-1136.2,-48.7 L-1138.9,-50.3 L-1140.9,-51.5 L-1142.4,-51.4 L-1145.7,-51.2 L-1145.9,-53.9 L-1146.9,-55.5 L-1146.6,-56.9 L-1148.4,-57.7 L-1151.2,-58.8 L-1150.4,-61.5 L-1149.8,-63.5 L-1152.2,-64.2 L-1155.7,-65.0 L-1154.6,-66.9 L-1153.7,-68.4 L-1155.0,-70.6 L-1157.8,-74.3 L-1159.9,-76.9 L-1162.6,-81.0 L-1165.0,-84.6 L-1167.0,-87.5 L-1168.6,-89.6 L-1170.9,-93.2 L-1174.0,-97.3 L-1176.8,-100.5 L-1176.4,-102.6 L-1179.2,-105.2 L-1181.7,-107.8 L-1184.6,-110.9 L-1187.4,-112.4 L-1189.4,-113.4 L-1192.3,-115.0 L-1193.8,-116.3 L-1195.1,-118.3 L-1196.0,-120.8 L-1200.1,-123.6 L-1201.2,-124.8 L-1203.7,-126.2 L-1205.7,-126.8 L-1208.9,-131.6 L-1208.5,-133.2 L-1208.2,-134.7 L-1212.6,-138.8 L-1214.6,-140.2 L-1216.7,-141.6 L-1221.2,-139.7 L-1225.7,-137.9 L-1228.8,-137.2 L-1233.2,-136.2 L-1231.7,-134.2 L-1232.3,-132.7 L-1233.7,-132.1 L-1236.0,-132.1 L-1236.0,-127.1 L-1238.2,-123.5 L-1242.8,-123.4 L-1245.2,-122.2 L-1248.8,-120.3 L-1251.8,-118.9 L-1254.9,-116.5 L-1256.5,-116.8 L-1255.8,-118.9 L-1257.0,-122.6 L-1257.9,-125.6 L-1259.9,-127.1 L-1263.3,-129.7 L-1265.9,-131.7 L-1269.5,-134.5 L-1272.0,-136.4 L-1274.7,-138.5 L-1278.1,-141.1 L-1279.5,-144.6 L-1282.7,-145.9 L-1286.1,-147.2 L-1288.9,-149.7 L-1287.9,-152.3 L-1286.8,-155.3 L-1286.8,-157.1 L-1289.8,-157.0 L-1294.4,-156.8 L-1298.4,-156.7 L-1301.4,-154.5 L-1304.2,-152.6 L-1308.6,-154.1 L-1313.5,-155.8 L-1314.9,-153.5 L-1319.6,-154.7 L-1324.2,-155.9 L-1324.2,-164.1 L-1324.2,-172.3 L-1324.2,-180.6 L-1324.2,-188.8 L-1324.2,-197.1 L-1324.2,-205.3 L-1324.2,-213.5 L-1324.2,-221.8 L-1324.2,-230.0 L-1324.2,-238.3 L-1324.2,-246.5 L-1324.2,-254.7 L-1324.2,-263.0 L-1324.2,-271.2 L-1324.2,-279.5 L-1324.2,-287.7 L-1324.2,-295.9 L-1324.2,-304.2 L-1324.2,-312.4 L-1324.2,-320.7 L-1324.2,-328.9 L-1324.2,-337.1 L-1324.2,-345.4 L-1324.2,-353.6 L-1324.2,-361.9 L-1324.2,-370.1 L-1324.2,-378.3 L-1324.2,-386.6 L-1324.2,-394.8 L-1324.2,-403.1 L-1324.2,-411.3 L-1324.2,-419.5 L-1321.4,-419.1 L-1312.6,-418.2 L-1304.3,-418.7 L-1288.8,-415.7 L-1279.2,-410.1 L-1271.5,-407.4 L-1268.3,-405.5 L-1263.3,-403.8 L-1251.4,-400.2 L-1247.8,-399.8 L-1240.9,-398.1 L-1236.6,-398.3 L-1229.3,-397.9 L-1224.3,-396.5 L-1214.5,-392.6 L-1212.5,-392.3 L-1215.4,-396.4 L-1219.9,-398.2 L-1224.5,-398.9 L-1225.8,-400.5 L-1224.5,-401.2 L-1221.0,-401.2 L-1219.0,-401.4 L-1221.9,-402.6 L-1224.0,-403.5 L-1220.9,-410.0 L-1219.5,-409.4 L-1217.2,-410.7 L-1213.2,-409.9 L-1212.0,-413.2 L-1210.2,-414.4 L-1204.6,-414.9 L-1197.7,-414.4 L-1197.6,-416.6 L-1197.3,-419.0 L-1196.0,-420.4 L-1192.8,-420.1 L-1190.7,-417.8 L-1186.1,-416.1 L-1187.0,-413.3 L-1188.4,-412.1 L-1191.3,-409.1 L-1187.0,-409.7 L-1182.1,-411.6 L-1177.9,-412.6 L-1174.3,-412.8 L-1171.8,-413.4 L-1170.2,-414.5 L-1167.0,-418.9 L-1165.5,-419.5 L-1159.4,-419.3 L-1158.0,-419.4 L-1158.5,-420.7 L-1160.2,-420.9 L-1158.7,-422.0 L-1155.7,-422.4 L-1153.7,-421.2 L-1152.3,-421.1 L-1147.9,-422.4 L-1141.0,-426.1 L-1138.3,-427.1 L-1135.9,-427.3 L-1133.9,-426.6 L-1132.4,-426.8 L-1130.3,-428.8 L-1128.3,-430.8 L-1123.2,-433.0 L-1120.0,-433.4 L-1118.0,-433.0 L-1115.6,-432.2 L-1113.7,-431.8 L-1111.1,-432.1 L-1109.2,-432.0 L-1105.0,-434.8 L-1102.9,-434.1 L-1101.3,-432.4 L-1103.4,-429.3 L-1119.2,-423.2 L-1124.0,-420.5 L-1126.4,-419.6 L-1128.9,-419.0 L-1133.8,-418.6 L-1135.7,-418.0 L-1138.9,-417.5 L-1146.5,-416.7 L-1147.9,-416.3 L-1151.7,-412.5 L-1153.0,-411.5 L-1155.6,-409.9 L-1158.5,-408.9 L-1162.5,-408.5 L-1165.1,-407.0 L-1168.0,-404.1 L-1170.3,-402.0 L-1173.0,-400.3 L-1176.0,-398.0 L-1175.9,-395.2 L-1172.4,-393.9 L-1174.8,-396.1 L-1162.9,-396.0 L-1160.4,-396.9 L-1162.9,-398.3 L-1164.0,-400.4 L-1163.8,-402.4 L-1159.8,-405.2 L-1156.1,-405.9 L-1153.3,-406.9 L-1151.8,-407.8 L-1147.6,-409.4 L-1145.9,-410.7 L-1144.9,-412.2 L-1145.0,-413.4 L-1142.0,-414.1 L-1140.7,-414.2 L-1136.4,-413.5 L-1136.0,-411.4 L-1133.8,-413.4 L-1131.9,-414.1 L-1130.0,-413.3 L-1129.4,-411.4 L-1129.4,-408.3 L-1129.1,-407.1 L-1128.0,-409.2 L-1123.1,-414.8 L-1120.3,-417.3 L-1117.1,-419.7 L-1112.6,-421.5 L-1101.9,-424.5 L-1096.0,-425.3 L-1092.9,-426.1 L-1091.5,-426.7 L-1088.9,-428.4 L-1089.2,-426.4 L-1093.5,-424.7 L-1093.5,-422.3 L-1091.9,-421.0 L-1090.3,-421.3 L-1088.0,-422.4 L-1085.1,-424.0 L-1078.9,-428.3 L-1076.8,-432.4 L-1073.2,-433.9 L-1066.8,-435.6 L-1065.2,-436.7 L-1070.9,-437.7 L-1072.2,-438.7 L-1073.7,-440.6 L-1074.6,-442.9 L-1073.8,-444.2 L-1072.2,-445.4 L-1068.7,-444.9 L-1066.6,-444.0 L-1059.3,-439.8 L-1056.3,-437.7 L-1054.6,-436.1 L-1050.5,-431.1 L-1048.7,-428.2 L-1047.2,-425.3 L-1045.8,-423.1 L-1044.4,-421.8 L-1037.4,-416.6 L-1033.7,-414.4 L-1030.7,-413.0 L-1027.2,-411.9 L-1023.2,-411.1 L-1020.6,-411.0 L-1016.4,-413.3 L-1016.3,-414.7 L-1018.1,-417.2 L-1020.0,-418.8 L-1017.3,-421.8 L-1016.9,-424.6 L-1015.3,-424.2 L-1013.6,-425.0 L-1012.4,-426.4 L-1010.9,-427.6 L-1009.0,-428.5 L-1010.4,-429.5 L-1012.3,-429.7 L-1008.1,-431.7 L-1006.0,-433.4 L-1004.4,-433.7 L-1002.2,-432.5 L-1002.2,-431.1 L-1002.7,-428.9 L-1002.8,-427.1 L-1001.5,-422.8 L-996.0,-420.6 L-1001.3,-415.1 L-1003.0,-413.2 L-1001.9,-411.9 L-1000.2,-411.5 L-995.8,-411.3 L-994.6,-411.7 L-986.0,-411.8 L-984.4,-412.2 L-983.1,-413.0 L-981.2,-415.2 L-979.0,-415.9 L-977.0,-419.0 L-976.3,-422.0 L-975.6,-423.3 L-973.3,-424.3 L-970.0,-424.0 L-968.4,-424.2 L-962.2,-424.0 L-956.1,-424.2 L-949.7,-423.7 L-945.6,-423.1 L-941.8,-422.1 L-934.5,-419.8 L-931.7,-418.6 L-921.5,-413.1 L-918.5,-411.9 L-912.9,-410.8 L-893.8,-408.4 L-891.4,-407.8 L-886.4,-405.3 L-882.9,-403.8 L-878.8,-402.4 L-873.6,-401.2 L-863.5,-399.4 L-861.9,-398.8 L-860.0,-398.6 L-858.0,-398.8 L-848.7,-397.8 L-846.3,-397.8 L-844.5,-397.6 L-842.4,-396.9 L-839.2,-396.6 L-842.9,-400.0 L-841.3,-400.5 L-836.8,-400.0 L-834.3,-400.8 L-830.9,-400.4 L-827.2,-399.5 L-823.2,-398.1 L-818.5,-397.0 L-811.2,-394.0 L-807.2,-391.6 L-803.4,-388.6 L-801.3,-386.5 L-800.1,-384.7 L-798.9,-384.7 L-799.5,-381.6 L-801.0,-380.5 L-804.5,-380.0 L-814.0,-380.6 L-815.7,-378.5 L-821.1,-376.7 L-822.2,-375.4 L-821.8,-373.5 L-826.9,-370.8 L-824.2,-369.4 L-821.2,-367.9 L-818.8,-367.5 L-815.8,-367.7 L-812.0,-367.2 L-807.5,-366.0 L-804.3,-365.4 L-802.6,-365.5 L-800.1,-365.3 L-797.1,-364.7 L-793.0,-364.5 L-783.9,-364.6 L-781.1,-364.2 L-777.3,-364.0 L-770.0,-364.0 L-768.7,-364.1 L-766.4,-365.1 L-764.8,-365.4 L-762.2,-365.4 L-754.6,-366.1 L-752.0,-366.1 L-749.6,-366.7 L-746.5,-367.8 L-744.5,-368.0 L-742.5,-367.0 L-740.6,-367.1 L-737.0,-368.3 L-728.6,-371.7 L-725.6,-371.7 L-723.3,-372.8 L-720.1,-369.8 L-718.1,-369.2 L-716.7,-367.9 L-715.2,-366.0 L-706.3,-365.4 L-703.5,-364.8 L-701.8,-362.8 L-701.3,-359.8 L-699.8,-357.1 L-698.3,-357.1 L-696.4,-361.2 L-694.4,-361.7 L-692.0,-358.4 L-689.2,-356.2 L-682.2,-352.0 L-681.1,-350.5 L-681.1,-348.4 L-682.3,-347.5 L-684.2,-346.8 L-686.8,-346.2 L-689.2,-346.4 L-691.4,-347.3 L-686.7,-343.1 L-685.5,-341.8 L-683.4,-340.4 L-681.6,-338.6 L-677.8,-335.9 L-676.7,-334.6 L-672.4,-330.5 L-670.3,-328.8 L-668.7,-327.9 L-674.0,-334.0 L-676.8,-337.5 L-677.4,-339.5 L-677.5,-343.7 L-675.2,-344.9 L-672.7,-343.0 L-671.2,-342.8 L-669.4,-342.9 L-666.9,-341.5 L-668.0,-344.1 L-669.3,-345.4 L-668.5,-347.7 L-672.4,-350.4 L-674.1,-352.5 L-675.5,-355.6 L-675.7,-356.9 L-675.4,-358.2 L-677.7,-361.3 L-679.8,-362.8 L-681.6,-364.5 L-681.7,-367.9 L-680.3,-368.9 L-677.9,-370.4 L-677.2,-371.8 L-678.3,-373.3 L-672.9,-374.7 L-671.7,-374.4 L-669.8,-374.7 L-667.4,-375.6 L-665.4,-376.0 L-662.9,-376.0 L-661.5,-376.2 L-659.8,-376.6 L-657.4,-378.8 L-654.0,-378.9 L-652.5,-378.5 L-651.9,-381.1 L-648.8,-383.8 L-646.1,-384.0 L-644.3,-384.5 L-642.3,-385.5 L-640.8,-386.4 L-639.3,-387.8 L-638.7,-389.7 L-642.3,-390.9 L-644.1,-390.6 L-648.2,-389.3 L-652.5,-387.6 L-654.1,-386.0 L-654.6,-384.0 L-658.7,-383.9 L-660.2,-383.9 L-662.0,-383.5 L-663.9,-382.8 L-665.9,-381.6 L-668.8,-381.4 L-672.7,-382.1 L-675.1,-382.3 L-677.4,-381.0 L-676.2,-378.7 L-683.0,-377.6 L-684.5,-377.8 L-687.5,-377.2 L-688.7,-377.3 L-695.8,-380.8 L-694.9,-383.7 L-689.2,-389.8 L-677.9,-391.3 L-671.5,-392.4 L-659.7,-395.8 L-657.4,-396.1 L-649.9,-398.4 L-646.8,-398.9 L-643.9,-398.5 L-639.6,-397.4 L-637.5,-396.3 L-635.9,-395.1 L-634.6,-393.3 L-633.0,-389.3 L-632.5,-385.9 L-631.5,-384.7 L-627.9,-382.3 L-626.1,-381.4 L-624.0,-381.7 L-622.4,-380.1 L-619.6,-380.1 L-617.4,-379.5 L-617.5,-377.2 L-614.1,-374.8 L-611.5,-374.2 L-608.4,-373.9 L-602.8,-374.1 L-598.0,-374.9 L-594.5,-376.2 L-591.5,-374.8 L-585.7,-371.3 L-582.2,-368.8 L-579.2,-367.7 L-573.4,-366.3 L-572.0,-365.5 L-569.9,-365.5 L-566.9,-366.0 L-563.5,-365.8 L-559.7,-364.8 L-557.1,-364.3 L-548.2,-366.3 L-546.9,-366.4 L-543.5,-367.3 L-541.4,-367.6 L-538.9,-367.6 L-537.0,-367.9 L-535.8,-368.5 L-531.0,-368.4 L-522.5,-367.8 L-516.6,-366.9 L-513.2,-365.8 L-510.3,-365.2 L-508.1,-365.1 L-505.9,-365.3 L-503.8,-365.8 L-501.6,-366.8 L-496.8,-367.3 L-497.1,-368.9 L-499.8,-370.5 L-501.7,-372.0 L-502.0,-374.2 L-500.3,-375.0 L-498.5,-374.3 L-496.1,-372.7 L-489.2,-366.5 L-487.6,-365.6 L-480.4,-362.6 L-477.4,-362.2 L-473.9,-363.6 L-472.3,-364.4 L-471.6,-366.1 L-471.6,-368.0 L-475.1,-370.2 L-479.2,-371.9 L-482.9,-372.4 L-486.3,-371.7 L-490.2,-370.3 L-491.7,-370.8 L-496.5,-374.8 L-497.7,-376.3 L-495.5,-376.2 L-496.7,-378.7 L-500.3,-382.3 L-498.9,-383.4 L-497.1,-383.8 L-492.3,-381.9 L-489.8,-382.8 L-484.0,-383.9 L-486.3,-385.7 L-486.8,-387.4 L-484.7,-388.0 L-481.0,-386.6 L-479.2,-386.4 L-477.9,-387.0 L-476.5,-387.0 L-475.1,-386.5 L-473.7,-385.8 L-471.2,-383.7 L-470.0,-382.4 L-468.6,-380.5 L-461.3,-380.0 L-457.5,-381.8 L-458.5,-379.8 L-463.2,-374.7 L-460.6,-374.4 L-458.7,-375.4 L-458.1,-376.8 L-450.6,-379.7 L-448.5,-380.0 L-449.8,-377.4 L-452.4,-368.2 L-453.0,-365.0 L-456.3,-360.4 L-456.3,-359.2 L-453.3,-356.2 L-452.4,-352.9 L-449.4,-352.4 L-446.8,-353.2 L-443.7,-353.7 L-444.9,-350.3 L-441.8,-350.8 L-440.5,-350.9 L-437.8,-349.2 L-437.6,-346.4 L-437.8,-345.2 L-439.4,-344.2 L-441.5,-344.1 L-444.6,-343.9 L-446.4,-344.2 L-448.2,-345.1 L-449.5,-345.3 L-451.0,-344.6 L-453.3,-344.7 L-455.9,-346.8 L-457.3,-346.3 L-456.1,-344.5 L-446.9,-337.5 L-445.5,-336.1 L-445.2,-334.0 L-444.1,-336.1 L-449.4,-341.1 L-450.0,-342.6 L-448.6,-343.4 L-441.8,-342.4 L-439.2,-342.7 L-437.4,-343.4 L-435.9,-349.1 L-434.7,-352.2 L-435.4,-355.0 L-437.2,-359.4 L-438.7,-362.0 L-442.0,-364.6 L-438.6,-373.6 L-437.1,-374.6 L-434.2,-374.7 L-432.1,-375.3 L-428.8,-374.4 L-427.0,-374.2 L-424.7,-375.0 L-419.7,-378.4 L-417.7,-379.4 L-415.2,-381.4 L-412.1,-384.3 L-408.8,-386.4 L-403.4,-388.3 L-400.2,-389.9 L-402.6,-390.6 L-403.9,-392.3 L-403.6,-395.1 L-403.7,-396.6 L-404.0,-398.0 L-404.7,-399.2 L-406.6,-401.0 L-407.9,-401.1 L-409.0,-398.1 L-410.1,-396.1 L-411.5,-395.1 L-414.4,-394.4 L-419.5,-393.9 L-421.6,-394.9 L-421.2,-398.7 L-419.5,-400.0 L-414.8,-402.6 L-411.8,-404.7 L-414.5,-405.0 L-415.8,-408.0 L-415.2,-410.0 L-413.3,-410.8 L-407.4,-411.8 L-402.8,-413.0 L-406.4,-409.1 L-405.3,-407.6 L-401.8,-409.6 L-399.5,-411.2 L-401.2,-412.0 L-400.9,-413.9 L-403.4,-415.8 L-406.2,-415.2 L-408.6,-414.1 L-410.5,-413.8 L-413.4,-413.8 L-415.5,-414.0 L-416.8,-414.6 L-418.4,-415.8 L-420.2,-417.6 L-422.5,-419.5 L-424.1,-419.5 L-425.6,-417.7 L-435.3,-420.0 L-439.2,-421.4 L-441.1,-422.5 L-443.4,-423.1 L-446.2,-423.3 L-448.4,-423.8 L-450.1,-424.6 L-451.4,-425.8 L-452.5,-427.3 L-454.4,-429.2 L-458.7,-432.9 L-459.8,-435.3 L-459.7,-438.6 L-455.7,-442.7 L-453.5,-444.7 L-451.5,-445.2 L-450.1,-445.4 L-446.8,-444.9 L-448.7,-446.1 L-446.9,-449.0 L-452.7,-447.4 L-454.1,-447.5 L-456.1,-448.5 L-459.8,-452.2 L-459.8,-454.5 L-458.7,-457.7 L-458.3,-459.6 L-459.3,-461.2 L-457.8,-462.1 L-457.8,-464.4 L-454.4,-467.2 L-451.8,-468.8 L-450.3,-469.3 L-449.0,-469.2 L-447.6,-468.7 L-446.2,-467.8 L-443.8,-466.8 L-442.0,-466.6 L-440.6,-467.1 L-438.4,-470.6 L-438.3,-471.8 L-442.8,-471.8 L-444.7,-472.1 L-446.6,-473.8 L-441.6,-476.9 L-439.6,-479.5 L-433.6,-483.1 L-427.5,-484.8 L-424.5,-485.3 L-422.1,-485.4 L-419.8,-483.4 L-419.5,-481.5 L-416.2,-479.2 L-413.6,-479.0 L-411.9,-479.3 L-406.5,-479.2 L-405.3,-478.5 L-406.0,-476.6 L-402.0,-473.6 L-398.7,-472.3 L-395.8,-470.6 L-391.4,-467.1 L-389.8,-465.0 L-388.6,-461.0 L-388.5,-459.5 L-388.9,-455.2 L-390.4,-453.4 L-386.6,-451.9 L-383.8,-449.7 L-382.4,-448.9 L-378.9,-447.7 L-377.5,-446.5 L-375.5,-443.3 L-372.3,-440.4 L-372.7,-438.4 L-371.0,-437.4 L-368.9,-438.7 L-366.7,-438.6 L-364.6,-436.0 L-362.9,-434.4 L-368.6,-433.1 L-371.2,-433.4 L-373.7,-434.2 L-375.4,-435.0 L-377.0,-436.2 L-378.4,-435.1 L-380.2,-433.6 L-381.3,-432.3 L-380.0,-431.7 L-373.8,-431.8 L-372.5,-431.4 L-370.9,-430.5 L-372.7,-428.9 L-376.9,-426.3 L-385.9,-421.3 L-388.6,-420.0 L-386.9,-419.6 L-383.8,-419.8 L-380.9,-420.5 L-377.4,-420.2 L-375.8,-419.6 L-375.4,-418.2 L-369.6,-416.2 L-366.0,-416.6 L-362.2,-418.5 L-359.4,-419.5 L-355.8,-419.4 L-357.8,-417.6 L-360.2,-416.4 L-357.5,-416.5 L-350.9,-415.7 L-347.7,-415.5 L-345.4,-415.7 L-343.2,-415.4 L-341.2,-414.6 L-342.4,-413.7 L-344.2,-413.7 L-345.7,-413.3 L-347.0,-412.3 L-347.9,-411.0 L-348.4,-409.4 L-349.8,-408.7 L-352.0,-409.0 L-354.8,-409.7 L-356.1,-409.7 L-346.9,-404.2 L-343.9,-399.7 L-341.8,-397.8 L-342.9,-396.1 L-342.4,-392.4 L-342.7,-390.2 L-343.6,-386.4 L-340.7,-384.1 L-339.4,-382.8 L-338.0,-381.2 L-336.4,-380.3 L-335.5,-381.6 L-332.5,-384.2 L-330.5,-386.8 L-330.4,-389.8 L-328.2,-393.7 L-327.6,-395.9 L-327.0,-399.3 L-326.0,-401.6 L-323.7,-403.6 L-319.8,-407.6 L-318.4,-408.4 L-316.9,-408.8 L-314.1,-408.7 L-312.1,-407.4 L-309.4,-405.0 L-306.0,-402.9 L-299.7,-399.9 L-297.9,-398.8 L-294.4,-395.9 L-292.9,-393.0 L-291.8,-388.9 L-290.9,-386.5 L-289.9,-384.4 L-289.9,-382.7 L-290.2,-381.5 L-291.5,-380.0 L-293.4,-379.8 L-295.7,-380.1 L-297.6,-382.4 L-300.3,-381.1 L-299.8,-377.7 L-299.9,-372.7 L-297.4,-366.4 L-293.5,-362.4 L-283.8,-354.8 L-282.2,-350.8 L-280.3,-349.7 L-275.7,-352.3 L-272.6,-354.8 L-270.5,-356.1 L-269.2,-356.2 L-267.9,-356.7 L-266.5,-357.5 L-265.1,-359.3 L-264.4,-363.1 L-263.9,-364.9 L-262.4,-367.4 L-254.4,-374.3 L-250.6,-382.2 L-249.4,-385.5 L-249.3,-387.5 L-249.7,-389.3 L-249.5,-390.8 L-247.7,-392.7 L-246.1,-393.5 L-244.8,-394.8 L-243.5,-394.8 L-241.8,-394.0 L-240.6,-393.9 L-232.6,-394.8 L-237.3,-396.8 L-236.8,-398.6 L-235.4,-399.8 L-233.6,-400.1 L-233.1,-401.8 L-232.5,-403.3 L-237.4,-405.9 L-239.9,-405.8 L-242.7,-407.7 L-243.5,-410.2 L-243.3,-412.8 L-243.7,-415.0 L-243.3,-416.6 L-244.6,-418.6 L-243.9,-422.3 L-244.9,-424.3 L-243.3,-425.1 L-241.1,-424.8 L-238.6,-423.9 L-235.6,-423.9 L-232.0,-424.7 L-228.3,-425.2 L-222.0,-425.0 L-220.5,-424.7 L-214.2,-422.2 L-209.3,-420.9 L-207.0,-421.0 L-196.2,-420.5 L-191.4,-420.8 L-188.9,-420.7 L-184.2,-419.3 L-186.5,-416.2 L-189.2,-415.8 L-191.6,-415.1 L-189.4,-414.1 L-182.9,-412.8 L-181.4,-410.6 L-181.7,-408.7 L-179.8,-408.2 L-175.9,-409.0 L-171.7,-408.5 L-165.4,-406.8 L-163.7,-405.1 L-169.3,-401.3 L-172.2,-400.0 L-175.9,-398.6 L-170.8,-397.8 L-166.7,-397.4 L-164.8,-397.0 L-162.6,-395.0 L-162.5,-392.5 L-167.7,-388.7 L-169.9,-387.8 L-173.6,-386.7 L-175.2,-385.9 L-177.0,-386.0 L-178.9,-387.1 L-181.0,-387.3 L-184.6,-386.5 L-186.6,-386.5 L-185.9,-383.8 L-184.5,-382.5 L-184.5,-381.0 L-181.2,-377.1 L-179.8,-376.9 L-178.4,-378.1 L-177.1,-378.5 L-178.7,-374.4 L-178.8,-372.7 L-178.1,-371.0 L-176.4,-369.1 L-174.3,-367.4 L-171.2,-365.2 L-167.0,-362.8 L-165.4,-361.6 L-163.2,-358.8 L-163.3,-354.9 L-165.0,-350.1 L-166.0,-347.4 L-169.7,-344.8 L-171.5,-344.4 L-174.4,-344.5 L-177.0,-342.5 L-179.1,-339.9 L-180.7,-338.2 L-181.9,-337.4 L-184.2,-336.6 L-187.6,-334.1 L-189.3,-333.2 L-195.3,-332.1 L-200.2,-328.8 L-202.1,-327.6 L-204.2,-327.1 L-206.5,-327.0 L-207.8,-327.5 L-208.5,-329.6 L-210.7,-331.7 L-214.2,-335.7 L-215.7,-337.1 L-218.8,-337.2 L-222.1,-338.6 L-221.1,-340.3 L-224.8,-342.7 L-226.1,-343.7 L-229.2,-345.3 L-232.2,-345.6 L-236.0,-343.6 L-237.4,-342.2 L-235.6,-341.2 L-233.2,-342.7 L-230.1,-342.9 L-228.2,-342.0 L-227.2,-340.7 L-222.0,-336.7 L-220.1,-335.8 L-218.7,-333.2 L-217.6,-331.4 L-215.1,-328.5 L-212.4,-324.8 L-211.8,-323.3 L-213.2,-322.6 L-216.0,-323.1 L-221.5,-324.8 L-223.5,-323.9 L-224.7,-321.8 L-228.0,-322.4 L-233.4,-324.2 L-237.1,-325.8 L-238.9,-327.0 L-241.2,-329.0 L-243.8,-331.7 L-247.0,-332.6 L-250.6,-331.6 L-255.9,-331.3 L-267.0,-331.6 L-268.4,-331.3 L-268.0,-329.5 L-268.0,-326.8 L-266.0,-325.7 L-260.5,-324.2 L-256.9,-322.9 L-254.7,-321.9 L-253.9,-319.9 L-254.9,-318.0 L-268.3,-307.3 L-273.2,-303.3 L-275.7,-300.8 L-277.9,-299.2 L-279.8,-298.4 L-282.9,-298.0 L-287.3,-297.8 L-293.0,-298.2 L-295.9,-299.5 L-301.2,-302.9 L-305.0,-305.0 L-306.6,-305.6 L-308.0,-307.5 L-309.3,-307.9 L-311.9,-308.2 L-314.7,-309.2 L-321.2,-312.7 L-324.5,-314.0 L-327.6,-314.8 L-330.3,-314.9 L-329.5,-313.0 L-332.5,-313.3 L-334.7,-313.3 L-338.6,-314.5 L-342.4,-314.3 L-345.2,-314.6 L-348.5,-315.3 L-352.1,-315.6 L-357.8,-315.6 L-359.9,-315.4 L-357.4,-313.6 L-352.7,-311.8 L-353.3,-313.4 L-351.6,-314.3 L-344.0,-313.3 L-335.5,-311.3 L-333.4,-311.1 L-331.0,-310.4 L-328.3,-309.2 L-324.7,-306.7 L-317.7,-301.0 L-315.5,-299.5 L-312.5,-298.2 L-297.4,-296.3 L-292.2,-296.3 L-281.7,-295.7 L-276.2,-294.7 L-274.6,-294.0 L-274.2,-291.5 L-274.7,-290.2 L-277.7,-286.3 L-279.6,-283.5 L-291.3,-271.5 L-292.8,-268.7 L-293.5,-267.1 L-295.6,-265.4 L-300.9,-262.7 L-306.2,-260.5 L-309.4,-260.0 L-312.3,-260.5 L-314.2,-261.2 L-316.9,-263.4 L-315.1,-259.7 L-317.2,-259.7 L-320.8,-261.3 L-322.7,-260.6 L-325.0,-261.1 L-327.2,-262.4 L-328.4,-264.9 L-333.2,-264.2 L-331.5,-262.5 L-329.7,-259.6 L-335.2,-259.7 L-333.6,-256.7 L-332.8,-255.4 L-335.4,-251.4 L-337.2,-250.1 L-339.6,-249.6 L-341.1,-249.9 L-342.8,-250.8 L-344.0,-250.6 L-346.2,-248.8 L-348.2,-248.4 L-350.8,-248.6 L-354.0,-249.4 L-362.4,-252.5 L-365.0,-252.9 L-369.9,-253.3 L-369.8,-254.6 L-371.0,-255.2 L-373.2,-254.1 L-375.1,-253.9 L-377.9,-254.2 L-382.0,-255.4 L-390.2,-258.4 L-399.1,-261.0 L-404.3,-264.3 L-402.4,-261.3 L-403.5,-259.4 L-401.7,-256.4 L-398.9,-255.6 L-396.0,-255.7 L-398.2,-257.4 L-398.1,-258.7 L-395.6,-258.1 L-394.0,-257.4 L-381.6,-253.5 L-377.9,-252.7 L-375.2,-252.0 L-375.3,-250.5 L-380.3,-248.0 L-377.0,-247.9 L-372.8,-250.0 L-370.5,-251.0 L-368.3,-251.7 L-365.2,-250.6 L-361.4,-247.8 L-358.3,-246.3 L-353.9,-245.4 L-351.3,-244.5 L-347.0,-241.9 L-346.3,-240.6 L-345.9,-235.1 L-346.0,-233.8 L-346.6,-232.5 L-347.6,-231.2 L-349.4,-230.5 L-352.0,-230.3 L-354.1,-229.8 L-358.7,-226.9 L-360.6,-226.5 L-368.8,-227.3 L-372.0,-228.1 L-373.5,-228.1 L-375.1,-227.2 L-378.4,-226.9 L-378.7,-225.6 L-377.3,-223.9 L-376.1,-223.1 L-374.2,-222.6 L-370.5,-222.0 L-370.1,-220.5 L-371.5,-219.0 L-372.9,-219.1 L-375.4,-220.3 L-376.6,-220.3 L-379.1,-219.5 L-381.0,-219.7 L-382.3,-218.0 L-385.1,-215.6 L-386.2,-213.7 L-385.0,-213.0 L-383.5,-211.7 L-381.9,-209.5 L-383.9,-209.7 L-385.6,-211.1 L-388.2,-212.4 L-393.8,-214.1 L-390.5,-211.9 L-389.1,-210.7 L-392.1,-208.0 L-391.1,-206.4 L-394.0,-204.7 L-397.6,-204.6 L-396.5,-203.3 L-397.3,-201.9 L-402.1,-202.2 L-401.0,-200.2 L-399.1,-198.5 L-396.9,-197.6 L-399.0,-195.5 L-404.6,-192.6 L-408.5,-189.2 L-408.1,-185.9 L-409.1,-184.3 L-411.4,-184.6 L-411.3,-183.1 L-411.2,-181.5 L-411.5,-179.5 L-413.2,-176.3 L-416.2,-172.0 L-418.5,-168.0 L-420.1,-164.4 L-421.3,-162.7 L-423.4,-162.6 L-425.0,-161.4 L-423.3,-160.2 L-423.3,-155.9 L-424.6,-150.4 L-425.5,-146.1 L-425.3,-132.7 L-425.6,-126.7 L-426.2,-123.5 L-427.1,-121.7 L-428.8,-121.1 L-426.7,-120.6 L-425.3,-119.8 L-424.7,-118.5 L-424.1,-116.5 L-422.4,-115.7 L-420.7,-114.9 L-418.4,-112.0 L-415.8,-111.2 L-415.7,-109.6 L-416.7,-100.6 L-414.3,-108.7 L-412.6,-111.8 L-411.3,-112.4 L-405.9,-112.8 L-400.2,-112.0 L-398.1,-111.9 L-396.2,-112.3 L-394.3,-111.5 L-393.2,-106.9 L-392.7,-104.8 L-389.3,-97.3 L-387.7,-93.1 L-385.7,-86.6 L-385.0,-84.7 L-380.9,-76.0 L-380.1,-73.6 L-379.7,-71.8 L-379.9,-70.5 L-380.6,-68.6 L-382.0,-65.9 L-383.3,-63.9 L-384.5,-62.5 L-385.7,-61.5 L-386.9,-60.8 L-385.4,-60.9 L-384.0,-61.6 L-381.3,-63.4 L-377.2,-64.1 L-378.6,-62.1 L-376.2,-63.0 L-371.7,-64.6 L-354.0,-69.6 L-349.9,-70.0 L-344.0,-69.1 L-339.1,-67.0 L-333.9,-64.3 L-328.4,-62.3 L-319.7,-60.4 L-317.1,-59.5 L-312.0,-58.6 L-309.6,-57.6 L-306.8,-55.0 L-302.2,-51.8 L-298.8,-49.7 L-295.0,-47.8 L-291.2,-44.2 L-285.0,-36.2 L-283.5,-35.2 L-279.7,-33.9 L-272.5,-32.2 L-262.0,-28.2 L-257.4,-26.6 L-254.4,-26.0 L-251.4,-24.9 L-248.4,-23.3 L-246.1,-21.6 L-244.5,-19.8 L-243.1,-18.5 L-240.7,-17.2 L-239.5,-16.2 L-239.3,-14.8 L-242.3,-9.1 L-239.4,-12.7 L-237.7,-13.9 L-236.4,-14.4 L-233.7,-14.4 L-229.5,-13.7 L-225.8,-13.7 L-222.7,-14.4 L-220.0,-14.7 L-217.8,-14.6 L-216.2,-14.8 L-214.0,-15.3 L-209.3,-13.9 L-207.4,-13.8 L-200.5,-12.4 L-196.1,-12.9 L-193.7,-10.9 L-192.4,-10.8 L-190.2,-11.1 L-188.1,-10.6 L-184.5,-8.3 L-182.9,-6.3 L-181.3,-2.3 L-184.1,8.2 L-185.0,11.8 L-185.1,14.9 L-184.5,16.7 L-182.0,19.8 L-180.0,25.0 L-179.6,27.0 L-179.8,29.2 L-180.6,32.8 L-180.4,35.5 L-179.7,39.7 L-180.0,42.6 L-181.1,44.0 L-181.9,45.5 L-182.5,48.1 L-181.9,51.1 L-179.0,53.5 L-177.3,55.3 L-174.1,59.8 L-171.9,62.3 L-169.1,66.0 L-168.5,67.9 L-169.3,69.1 L-172.5,71.1 L-170.0,71.5 L-168.1,71.5 L-166.5,72.4 L-165.2,74.2 L-163.0,75.7 L-159.9,76.9 L-156.8,79.0 L-151.7,83.9 L-149.4,87.6 L-147.6,91.6 L-146.7,94.2 L-146.6,95.5 L-147.6,96.7 L-151.1,98.9 L-154.5,102.9 L-151.2,101.0 L-147.3,97.7 L-145.1,97.1 L-143.1,97.5 L-140.0,98.4 L-137.2,99.8 L-134.8,101.5 L-131.2,106.2 L-127.4,109.9 L-125.3,113.1 L-125.9,111.1 L-127.3,108.7 L-130.9,105.0 L-132.4,103.1 L-132.9,101.2 L-132.6,99.3 L-131.9,96.6 L-131.0,94.7 L-129.2,92.5 L-128.8,91.2 L-125.1,88.7 L-123.7,90.8 L-121.5,91.6 L-120.3,92.3 L-118.6,94.4 L-117.3,99.1 L-116.7,100.8 L-116.5,98.7 L-115.8,95.6 L-115.2,94.3 L-113.3,92.4 L-114.2,90.5 L-118.1,85.7 L-117.1,83.9 L-116.4,82.6 L-116.0,80.6 L-115.2,79.3 L-112.7,77.3 L-110.6,74.3 L-109.5,72.2 L-107.8,70.8 L-109.1,70.0 L-109.4,67.0 L-109.9,64.3 L-110.8,63.1 L-113.2,60.5 L-114.0,56.8 L-113.7,55.3 L-113.1,54.1 L-115.7,50.7 L-116.6,48.8 L-117.5,44.2 L-118.4,38.4 L-119.4,34.2 L-120.5,31.5 L-120.7,29.8 L-119.3,26.9 L-117.5,26.6 L-119.2,25.2 L-120.0,23.7 L-118.5,21.7 L-119.8,20.3 L-123.2,19.0 L-122.0,18.5 L-121.4,17.0 L-122.7,16.6 L-124.3,15.7 L-125.5,14.4 L-126.9,12.3 L-127.8,10.7 L-128.7,7.9 L-130.2,4.8 L-131.6,3.6 L-131.5,2.1 L-116.8,-3.0 L-115.5,-3.8 L-108.3,-6.7 L-105.0,-8.3 L-101.6,-10.7 L-97.0,-13.1 L-94.7,-14.6 L-93.3,-16.1 L-86.0,-22.1 L-82.9,-25.1 L-81.1,-27.7 L-78.4,-30.8 L-75.0,-34.5 L-72.9,-37.6 L-71.9,-40.2 L-70.8,-44.7 L-70.5,-48.7 L-70.3,-54.5 L-70.4,-59.7 L-71.3,-67.9 L-71.9,-70.5 L-72.9,-73.5 L-75.5,-79.7 L-75.9,-81.3 L-77.5,-84.2 L-82.7,-91.5 L-89.2,-96.5 L-90.4,-97.7 L-92.9,-99.2 L-96.8,-100.9 L-99.4,-102.2 L-105.9,-107.4 L-108.1,-108.0 L-108.9,-109.3 L-108.9,-112.7 L-108.5,-114.4 L-108.0,-115.6 L-103.8,-120.2 L-101.8,-123.2 L-100.4,-124.8 L-98.9,-126.1 L-96.0,-127.8 L-94.4,-129.9 L-96.1,-131.7 L-94.2,-134.9 L-94.2,-137.8 L-91.1,-138.4 L-87.4,-135.2 L-89.1,-138.5 L-86.1,-141.7 L-86.8,-144.1 L-85.3,-148.0 L-90.3,-149.1 L-88.6,-151.2 L-92.3,-157.6 L-92.9,-159.4 L-91.3,-161.7 L-89.4,-162.7 L-92.1,-163.4 L-93.6,-163.7 L-95.0,-165.4 L-93.9,-167.0 L-92.5,-169.7 L-91.1,-170.2 L-96.6,-169.6 L-99.1,-170.5 L-101.5,-170.2 L-102.2,-171.4 L-97.8,-175.7 L-95.8,-178.0 L-94.5,-180.0 L-93.9,-181.4 L-94.2,-186.7 L-94.0,-187.9 L-92.3,-189.1 L-89.6,-191.3 L-93.2,-193.3 L-95.5,-195.2 L-97.0,-196.1 L-99.5,-199.1 L-100.6,-201.6 L-101.8,-206.8 L-102.0,-209.7 L-101.7,-211.8 L-100.4,-213.8 L-97.1,-215.8 L-91.4,-218.8 L-86.9,-219.9 L-83.6,-219.3 L-77.3,-218.6 L-72.2,-216.9 L-56.6,-212.7 L-53.9,-210.8 L-56.5,-209.2 L-50.3,-211.9 L-48.7,-212.5 L-47.4,-212.6 L-43.0,-211.4 L-41.2,-211.2 L-39.0,-210.3 L-33.6,-207.1 L-34.7,-209.0 L-29.7,-211.5 L-25.3,-212.9 L-22.2,-214.2 L-18.9,-216.0 L-16.7,-217.0 L-14.1,-216.6 L-10.2,-214.2 L-7.7,-213.0 L-5.7,-211.7 L-2.8,-209.4 L0.4,-207.3 L3.3,-207.5 L4.5,-207.0 L5.3,-205.3 L4.6,-202.5 L2.6,-199.3 L4.7,-199.9 L6.4,-201.2 L7.8,-201.6 L10.6,-200.6 L13.2,-199.0 L15.1,-196.8 L16.8,-194.8 L12.8,-192.6 L17.1,-192.8 L19.1,-194.7 L24.6,-193.0 L25.0,-191.7 L22.3,-190.4 L20.7,-188.7 L21.6,-187.5 L24.5,-187.2 L22.8,-186.1 L26.3,-181.6 L28.8,-180.1 L30.3,-179.8 L33.6,-179.7 L36.3,-179.1 L42.4,-177.1 L46.0,-176.8 L49.0,-177.4 L51.0,-177.5 L52.8,-176.7 L53.7,-175.1 L53.6,-173.4 L56.6,-171.5 L58.2,-171.6 L60.4,-173.0 L62.1,-173.2 L63.3,-176.0 L65.1,-177.3 L66.7,-175.9 L67.9,-173.4 L68.0,-171.3 L66.4,-169.4 L64.8,-168.3 L63.5,-166.8 L61.9,-163.4 L61.3,-161.1 L61.2,-159.8 L61.2,-158.3 L61.5,-156.8 L62.1,-155.5 L63.6,-153.6 L63.8,-151.5 L62.8,-149.5 L60.4,-148.2 L57.2,-147.9 L46.6,-147.8 L43.7,-148.1 L47.4,-146.6 L50.1,-146.6 L60.3,-145.8 L61.6,-145.1 L62.8,-143.7 L63.7,-142.4 L64.5,-139.6 L64.7,-138.2 L64.2,-136.8 L63.2,-135.1 L62.5,-133.0 L62.1,-130.3 L62.7,-128.8 L68.1,-128.7 L69.1,-127.0 L67.2,-124.3 L67.9,-121.6 L66.7,-119.2 L66.2,-117.0 L65.6,-115.5 L64.1,-114.4 L62.7,-114.4 L61.3,-117.5 L59.8,-117.2 L59.6,-115.8 L56.9,-114.0 L53.4,-113.3 L55.8,-112.0 L58.8,-110.6 L60.6,-110.4 L63.3,-111.5 L68.5,-115.0 L70.6,-115.9 L72.5,-116.3 L74.7,-116.3 L77.1,-116.1 L81.8,-116.5 L84.4,-115.4 L86.1,-114.2 L88.0,-112.0 L89.0,-107.8 L90.4,-106.7 L90.9,-104.7 L90.8,-102.2 L89.2,-97.4 L88.4,-95.6 L86.3,-93.1 L83.8,-92.0 L79.3,-91.0 L77.0,-90.1 L75.2,-88.9 L80.2,-90.3 L85.7,-91.3 L87.3,-92.5 L88.5,-93.5 L89.7,-96.0 L92.0,-102.3 L93.2,-104.3 L95.0,-104.7 L97.5,-100.3 L97.1,-98.5 L94.1,-94.9 L98.2,-98.7 L99.2,-101.3 L100.5,-101.9 L101.4,-97.9 L101.4,-94.9 L101.2,-91.2 L102.5,-93.1 L102.8,-94.9 L103.2,-96.2 L107.4,-99.5 L111.6,-101.4 L114.4,-103.2 L116.7,-104.0 L120.2,-104.8 L122.4,-106.5 L123.4,-108.9 L124.2,-110.7 L127.2,-113.3 L128.5,-113.4 L131.0,-111.5 L132.5,-109.6 L133.4,-108.1 L133.9,-103.1 L135.6,-106.1 L135.7,-108.2 L133.8,-111.7 L133.3,-113.2 L134.9,-114.7 L137.1,-114.9 L135.8,-116.2 L137.3,-118.5 L140.0,-118.4 L139.7,-119.9 L143.1,-119.5 L146.0,-120.3 L144.1,-121.8 L141.9,-122.3 L140.1,-125.2 L141.9,-125.2 L143.1,-128.2 L145.7,-128.1 L144.2,-131.8 L146.9,-132.7 L148.4,-132.3 L152.3,-129.9 L150.4,-132.2 L148.6,-133.2 L147.0,-133.6 L145.8,-134.4 L144.5,-136.6 L144.4,-138.7 L145.3,-141.1 L146.7,-142.0 L148.1,-142.3 L149.6,-142.0 L152.6,-140.4 L151.5,-141.8 L150.2,-143.6 L151.7,-147.2 L152.3,-149.1 L155.0,-154.5 L156.7,-156.1 L159.4,-156.9 L163.4,-155.0 L164.7,-153.8 L165.0,-152.2 L162.9,-150.1 L159.3,-148.4 L162.3,-148.6 L165.2,-149.2 L167.6,-149.2 L169.6,-146.6 L169.9,-143.1 L168.7,-140.1 L170.2,-141.6 L172.1,-142.4 L173.6,-140.4 L173.7,-138.9 L174.5,-137.4 L176.2,-135.4 L178.0,-133.6 L176.1,-131.8 L173.7,-130.7 L177.4,-129.0 L177.5,-127.0 L180.2,-128.8 L182.1,-128.6 L184.5,-124.7 L182.7,-122.4 L180.0,-121.4 L177.9,-121.0 L174.9,-121.0 L177.2,-120.0 L181.5,-120.5 L184.8,-121.4 L186.3,-121.5 L187.8,-121.1 L187.2,-119.3 L188.4,-117.2 L187.1,-115.5 L189.0,-115.2 L191.6,-115.8 L194.0,-112.6 L195.0,-110.0 L190.6,-106.4 L188.3,-105.6 L185.0,-103.8 L184.1,-102.2 L182.1,-100.3 L183.4,-100.3 L186.8,-103.4 L188.5,-104.2 L189.8,-104.0 L190.0,-102.6 L195.8,-104.5 L197.7,-104.9 L200.2,-105.0 L198.9,-100.0 L196.2,-96.6 L191.4,-94.6 L189.6,-93.4 L187.5,-91.4 L193.0,-93.6 L196.1,-94.6 L200.6,-95.4 L202.6,-95.3 L206.1,-90.2 L208.1,-89.7 L209.8,-90.0 L212.8,-88.5 L214.0,-87.1 L212.7,-85.4 L213.4,-81.6 L212.7,-80.0 L210.4,-78.6 L208.8,-77.9 L207.1,-77.7 L205.5,-76.5 L202.4,-76.6 L204.3,-75.4 L206.1,-75.2 L208.3,-75.6 L210.3,-75.6 L213.6,-74.7 L214.9,-73.5 L213.2,-70.5 L213.1,-69.2 L214.7,-68.4 L216.0,-68.0 L217.6,-68.3 L219.3,-68.0 L225.0,-63.1 L224.8,-60.6 L223.9,-58.6 L224.2,-56.5 L224.3,-53.8 L221.1,-53.1 L210.8,-54.3 L204.9,-56.2 L206.3,-58.1 L204.8,-58.2 L203.1,-57.7 L204.3,-55.2 L209.8,-53.4 L212.2,-51.3 L214.9,-51.1 L217.1,-49.4 L214.0,-48.8 L211.8,-47.4 L213.2,-46.5 L218.0,-45.8 L221.5,-45.6 L223.2,-44.8 L221.8,-43.8 L217.7,-42.7 L217.6,-41.1 L220.6,-40.5 L223.3,-40.8 L225.2,-36.7 L222.8,-35.2 L224.7,-33.8 L227.8,-33.3 L229.1,-31.4 L231.6,-30.7 L233.6,-32.2 L234.8,-33.4 L236.5,-32.9 L236.6,-31.4 L238.7,-29.7 L240.0,-26.9 L241.7,-29.1 L242.9,-28.6 L244.3,-28.5 L243.8,-26.4 L243.0,-24.7 L244.9,-22.1 L247.2,-20.0 L243.9,-16.7 L242.5,-13.2 L242.2,-12.0 L240.8,-10.0 L238.9,-8.1 L244.3,-11.9 L246.8,-13.1 L252.3,-13.7 L253.6,-14.7 L255.6,-15.1 L256.9,-14.0 L257.0,-11.9 L258.6,-11.3 L260.3,-12.0 L261.9,-11.4 L260.9,-10.1 L256.0,-4.8 L254.5,-2.6 L254.1,-1.1 L255.8,-3.2 L262.0,-8.0 L264.1,-10.7 L265.3,-12.0 L268.7,-11.6 L270.4,-10.6 L271.2,-7.9 L272.6,-5.0 L274.6,-1.8 L280.1,-0.3 L282.1,-0.0 L285.5,-1.1 L286.0,-2.6 L288.7,-3.1 L290.6,-2.9 L291.2,0.0 L293.2,1.5 L295.2,2.8 L297.1,3.5 L299.9,3.8 L301.4,5.1 L299.8,7.2 L298.3,9.4 L295.7,10.9 L292.0,11.0 L286.9,11.9 L285.5,13.7 L282.8,14.7 L281.4,15.4 L279.0,18.9 L277.5,20.4 L275.8,20.7 L273.5,20.6 L271.9,20.9 L270.1,22.5 L266.5,23.8 L260.7,26.5 L257.7,26.6 L255.8,26.3 L254.4,26.5 L250.7,28.5 L249.3,30.2 L249.0,32.1 L245.8,32.8 L243.2,31.6 L243.7,32.9 L247.8,35.1 L249.0,36.3 L245.3,39.0 L246.0,40.3 L244.2,41.9 L248.0,41.4 L251.2,38.9 L253.2,36.5 L258.3,34.9 L260.7,33.8 L264.1,31.9 L267.9,29.0 L271.9,25.3 L277.1,22.4 L283.5,20.3 L288.1,19.3 L291.1,19.2 L288.6,18.2 L286.4,18.1 L283.6,18.6 L282.9,17.0 L286.1,15.4 L297.3,16.4 L301.2,17.2 L305.4,23.9 L306.4,26.1 L306.6,27.7 L304.5,29.8 L299.7,32.2 L301.1,33.6 L302.8,36.8 L305.0,35.1 L309.0,31.0 L312.4,29.2 L315.2,28.6 L318.5,28.4 L320.1,29.8 L321.8,32.4 L323.5,33.1 L326.6,33.4 L329.4,36.7 L330.4,39.0 L331.4,40.3 L331.5,41.9 L332.6,44.0 L332.4,46.2 L330.8,50.0 L332.0,53.4 L331.5,55.0 L331.2,57.5 L332.2,59.1 L331.7,60.6 L325.5,62.0 L323.0,62.0 L324.3,63.1 L327.7,63.1 L331.8,63.9 L333.6,64.8 L334.4,66.1 L333.0,67.9 L330.7,67.8 L328.5,67.1 L331.9,69.5 L334.7,71.4 L335.1,72.8 L334.6,74.3 L328.4,80.2 L323.2,83.9 L318.0,87.2 L309.7,93.5 L307.4,93.9 L303.4,92.9 L300.3,93.2 L294.3,94.4 L292.7,95.1 L289.4,97.3 L288.1,97.6 L284.6,98.1 L281.2,97.8 L279.9,98.1 L278.3,99.2 L277.4,101.6 L269.3,109.8 L267.2,112.6 L263.0,115.6 L258.5,120.7 L254.5,122.8 L253.1,125.7 L249.4,127.4 L242.4,127.9 L239.1,128.4 L235.2,127.6 L232.3,128.8 L228.0,129.2 L225.8,128.9 L217.4,131.7 L215.2,129.1 L213.6,128.0 L208.8,127.9 L205.0,126.8 L201.5,126.6 L198.1,126.1 L195.9,126.1 L193.6,126.4 L190.0,126.3 L188.0,127.8 L181.2,127.3 L178.3,126.0 L176.0,125.7 L172.8,126.0 L169.8,127.0 L163.3,125.9 L156.3,126.8 L150.2,126.2 L148.5,125.6 L138.9,127.3 L135.1,126.3 L131.8,128.9 L129.5,128.4 L127.1,128.8 L124.6,128.6 L123.6,130.1 L122.2,130.2 L119.8,132.8 L116.0,134.8 L110.3,145.8 L109.7,150.1 L107.6,153.0 L105.7,153.4 L104.1,153.4 L94.3,155.6 L89.9,157.2 L91.1,158.6 L89.6,159.6 L87.3,160.0 L84.8,161.2 L83.2,162.6 L82.4,164.5 L77.3,167.6 L71.4,174.8 L68.6,180.1 L65.2,183.9 L62.8,185.4 L61.1,185.6 L59.4,185.2 L56.5,183.4 L54.3,183.2 L49.0,180.7 L36.7,178.2 L38.5,179.1 L40.2,180.6 L43.4,181.0 L46.7,181.0 L53.6,184.1 L57.0,185.2 L59.1,186.2 L60.8,188.2 L59.6,192.3 L58.3,195.7 L56.6,198.3 L50.6,205.0 L47.8,207.3 L42.7,215.3 L37.6,219.0 L34.8,221.3 L31.8,225.0 L24.9,227.7 L22.3,228.4 L19.9,228.0 L17.0,230.3 L13.6,231.6 L12.6,233.7 L4.4,239.3 L1.2,240.0 L-1.5,241.5 L-2.3,244.0 L-4.7,245.5 L-7.4,250.2 L-11.1,254.8 L-15.7,255.6 L-17.4,257.1 L-19.3,259.7 L-22.0,261.5 L-27.4,260.6 L-26.1,261.7 L-21.3,263.4 L-20.8,265.9 L-23.2,266.5 L-28.3,269.8 L-35.1,275.5 L-38.0,275.5 L-40.7,276.5 L-44.2,278.4 L-48.6,282.0 L-56.2,289.8 L-57.8,292.0 L-60.6,293.6 L-63.1,295.2 L-63.8,297.0 L-65.0,297.8 L-69.2,302.2 L-71.6,305.9 L-73.7,309.9 L-76.1,314.3 L-81.1,314.3 L-84.8,314.3 L-91.2,314.3 L-96.7,314.3 L-103.3,314.2 L-108.0,314.2 L-113.1,314.4 L-115.5,315.6 L-118.6,317.1 L-121.9,318.9 L-120.2,322.7 L-119.7,324.2 L-119.8,329.0 L-119.1,330.3 L-119.0,331.5 L-117.5,333.1 L-116.9,334.6 L-117.4,335.9 L-119.3,337.6 L-121.9,339.1 L-127.2,341.8 L-133.4,345.0 L-138.7,347.8 L-142.8,349.9 L-151.3,351.8 L-158.0,353.2 L-162.8,354.3 L-167.3,357.3 L-172.2,360.6 L-176.4,363.3 L-181.0,366.4 L-185.4,369.4 L-190.3,369.4 L-193.7,367.2 L-196.9,364.9 L-199.1,360.9 L-199.2,356.2 L-198.5,353.1 L-197.7,351.7 L-196.4,350.9 L-193.7,349.3 L-191.3,346.3 L-189.4,344.5 L-187.5,342.6 L-186.4,339.4 L-185.0,331.5 L-184.8,330.0 L-182.8,324.6 L-180.6,318.6 L-179.6,315.9 L-180.7,308.8 L-181.6,303.4 L-182.3,298.4 L-183.2,292.8 L-184.0,287.7 L-184.8,282.8 L-185.6,278.0 L-186.3,273.2 L-186.9,269.8 L-187.6,265.8 L-191.7,263.0 L-194.8,261.0 L-199.8,257.8 L-204.0,255.0 L-207.8,252.6 L-205.4,247.6 L-206.5,245.8 L-208.3,244.1 L-211.2,244.3 L-214.1,245.4 L-215.3,245.0 L-216.3,243.3 L-217.5,241.0 L-217.9,239.3 L-218.0,237.0 L-218.7,234.9 L-218.2,233.2 L-219.5,231.9 L-222.3,232.8 L-223.6,232.9 L-225.5,234.4 L-228.7,232.1 L-230.9,229.4 L-231.8,225.8 L-232.8,222.0 L-236.6,219.8 L-240.3,217.5 L-244.1,215.3 L-247.9,213.0 L-251.7,210.7 L-255.4,208.5 L-259.2,206.2 L-263.0,204.0 L-264.3,203.2 L-267.7,201.3 L-272.6,198.5 L-278.1,195.3 L-283.7,192.1 L-288.6,189.3 L-292.0,187.3 L-293.3,186.6 L-296.7,184.7 L-300.9,182.5 L-305.4,183.6 L-311.0,186.6 L-314.2,188.4 L-316.6,189.7 L-318.3,190.4 L-321.9,191.1 L-323.7,191.0 L-328.1,190.6 L-330.5,191.1 L-332.3,190.6 L-333.2,188.8 L-338.7,188.2 L-344.2,187.8 L-346.9,188.1 L-348.8,185.4 L-350.3,185.1 L-352.7,185.5 L-356.2,188.1 L-359.4,189.4 L-362.0,189.4 L-364.5,188.1 L-368.6,185.4 L-371.4,182.5 L-374.7,181.5 L-377.1,181.7 L-378.1,183.2 L-379.4,183.2 L-380.3,180.7 L-381.1,178.7 L-382.7,177.9 L-385.6,176.0 L-387.6,175.0 L-390.7,173.8 L-393.8,173.4 L-395.8,173.3 L-398.1,173.6 L-399.8,175.2 L-401.7,175.9 L-404.5,176.2 L-406.4,175.5 L-407.3,173.9 L-411.3,172.4 L-418.3,171.2 L-422.3,170.1 L-423.9,168.2 L-424.1,166.7 L-425.8,162.7 L-426.6,159.4 L-427.0,155.5 L-426.8,154.2 L-428.5,153.0 L-432.7,152.4 L-432.7,157.1 L-432.8,163.0 L-437.4,163.0 L-445.7,163.0 L-454.0,163.0 L-462.3,163.0 L-470.6,163.0 L-478.9,163.0 L-487.2,163.0 L-495.4,163.0 L-503.7,163.0 L-512.0,163.0 L-520.3,163.0 L-528.6,163.0 L-536.9,163.0 L-545.2,163.0 L-553.5,163.0 L-561.8,163.0 L-570.1,163.0 L-578.4,163.0 L-586.6,163.0 L-594.9,163.0 L-603.2,163.0 L-611.5,163.0 L-619.8,163.0 L-628.1,163.0 L-636.4,163.0 L-644.7,163.0 L-653.0,163.0 L-661.3,163.0 L-669.6,163.0 L-677.9,163.0 L-686.1,163.0 L-694.4,163.0 L-702.7,163.0 L-711.0,163.0 L-719.3,163.0 L-727.6,163.0 L-735.9,163.0 L-744.2,163.0 L-752.5,163.0 L-760.8,163.0 L-769.1,163.0 L-777.3,163.0 L-785.6,163.0 L-793.9,163.0 L-802.2,163.0 L-810.5,163.0 L-818.8,163.0 L-827.1,163.0 L-835.4,163.0 L-843.7,163.0 L-852.0,163.0 L-860.3,163.0 L-868.6,163.0 L-876.8,163.0 L-885.1,163.0 L-893.4,163.0 L-901.7,163.0 L-910.0,163.0 L-918.3,163.0 L-926.6,163.0 L-934.9,163.0 L-943.2,163.0 L-951.5,163.0 L-959.8,163.0 L-968.0,163.0 L-970.0,163.0 L-972.7,160.7 L-974.2,161.1 L-975.1,163.0 L-976.4,161.2 L-975.6,159.5 L-977.1,159.4 L-977.9,156.6 L-977.7,155.0 L-975.5,154.6 L-973.1,154.5 L-971.8,151.6 L-973.5,153.5 L-977.5,153.0 L-979.5,153.1 L-979.3,151.8 L-979.0,150.3 L-978.5,146.2 L-977.9,144.6 L-980.5,146.5 L-980.4,148.2 L-980.7,149.9 L-981.9,150.3 L-984.0,151.5 L-990.8,149.2 L-992.6,147.7 L-994.1,145.8 L-994.6,144.1 L-994.1,142.7 L-992.8,142.0 L-990.6,144.9 L-990.0,146.3 L-988.5,146.1 L-986.1,144.3 L-987.9,144.3 L-990.1,143.5 L-991.1,142.0 L-991.7,140.4 L-991.7,135.1 L-990.2,133.4 L-989.4,132.1 L-990.2,130.5 L-992.3,129.3 L-990.9,131.7 L-992.8,134.8 L-993.0,137.7 L-994.7,138.7 L-996.3,140.5 L-999.1,141.0 L-1001.6,140.9 L-1003.0,140.0 L-1007.2,135.8 L-1008.8,134.0 L-1008.8,132.6 L-1011.8,127.3 L-1012.8,124.6 L-1014.1,122.8 L-1011.8,119.5 L-1010.4,116.6 L-1010.3,114.4 L-1010.6,111.3 L-1010.3,110.0 L-1011.7,111.7 L-1012.1,113.0 L-1011.7,114.3 L-1011.9,115.8 L-1012.8,117.9 L-1014.2,120.1 L-1017.1,121.2 L-1022.3,120.6 L-1023.5,116.3 L-1024.4,118.4 L-1024.9,120.9 L-1026.6,121.5 L-1028.1,120.3 L-1029.4,120.2 L-1031.8,120.9 L-1034.3,120.6 L-1037.1,119.9 L-1040.3,119.7 L-1041.2,118.0 L-1037.1,117.0 L-1033.8,115.9 L-1030.5,115.3 L-1032.1,114.5 L-1039.7,115.8 L-1042.1,115.7 L-1042.5,114.2 L-1041.7,113.0 L-1040.2,111.8 L-1040.6,110.6 L-1042.0,110.9 L-1041.9,107.5 L-1042.5,104.8 L-1043.4,107.4 L-1044.8,108.8 L-1051.2,109.4 L-1053.0,110.1 L-1057.1,108.8 L-1058.9,107.9 L-1060.5,106.7 L-1063.4,103.9 L-1065.7,102.1 L-1065.8,98.8 L-1065.3,96.7 L-1064.2,94.4 L-1060.1,89.3 L-1058.7,88.3 L-1057.4,88.0 L-1051.3,87.5 L-1046.8,86.9 L-1052.6,86.2 L-1058.5,86.5 L-1060.5,87.3 L-1063.1,90.5 L-1063.8,91.9 L-1065.8,92.6 L-1066.5,91.1 L-1067.9,89.4 L-1068.5,87.4 L-1068.8,84.5 L-1068.7,83.3 L-1068.1,81.6 L-1066.1,78.4 L-1068.6,78.5 L-1068.3,75.8 L-1067.4,72.8 L-1065.0,71.1 L-1062.6,69.8 L-1060.4,68.2 L-1056.6,67.1 L-1055.3,69.3 L-1052.1,70.0 L-1050.0,72.9 L-1048.6,74.7 L-1046.8,76.4 L-1047.1,75.0 L-1049.9,71.8 L-1050.7,69.5 L-1054.4,67.7 L-1055.7,65.3 L-1055.6,63.0 L-1051.8,59.7 L-1051.0,57.9 L-1051.3,56.1 L-1052.1,54.4 L-1052.1,56.9 L-1052.6,59.0 L-1054.0,60.4 L-1062.0,68.1 L-1065.8,69.2 L-1067.3,70.0 L-1069.5,74.0 L-1071.3,79.6 L-1073.4,84.2 L-1075.1,78.3 L-1078.3,73.7 L-1072.1,69.2 L-1072.5,66.2 L-1071.8,64.4 L-1070.2,62.8 L-1072.1,63.2 L-1075.0,66.7 L-1076.7,68.0 L-1076.7,65.9 L-1075.2,60.6 L-1073.9,55.5 L-1073.5,54.0 L-1072.4,52.5 L-1078.5,54.9 L-1080.2,53.5 L-1081.6,46.0 L-1084.1,43.1 L-1088.3,40.8 L-1092.4,39.7 L-1093.3,37.5 L-1094.2,35.0 L-1093.0,31.9 L-1091.2,30.5 L-1089.6,29.8 L-1088.0,30.1 L-1089.0,34.2 L-1087.6,34.5 L-1081.9,38.1 L-1080.7,38.4 L-1078.3,37.0 L-1077.0,37.1 L-1074.0,38.2 L-1072.9,39.6 L-1070.0,42.3 L-1070.4,40.7 L-1073.6,37.4 L-1075.4,36.4 L-1078.6,36.2 L-1080.5,36.7 L-1083.0,35.7 L-1084.5,34.4 L-1086.0,31.4 L-1086.3,30.0 L-1085.9,28.0 L-1084.1,26.6 L-1082.3,26.2 L-1084.0,24.1 L-1088.7,26.6 L-1090.0,26.3 L-1091.1,27.5 L-1094.9,31.9 L-1095.3,33.8 L-1095.5,36.5 L-1095.8,38.2 L-1099.8,40.2 L-1101.8,42.9 L-1104.2,40.6 L-1106.8,38.4 L-1108.6,34.5 L-1111.7,33.8 L-1115.4,31.6 L-1116.8,29.6 L-1114.8,25.5 L-1111.9,22.5 L-1111.5,18.8 L-1106.2,17.1 L-1103.0,15.3 L-1106.3,15.1 L-1108.3,15.4 L-1111.9,16.7 L-1115.9,14.2 L-1118.0,11.9 L-1118.6,9.9 L-1117.9,8.3 L-1117.8,6.6 L-1117.5,4.3 L-1116.2,2.1 L-1114.5,1.2 L-1113.0,-1.4 L-1112.4,-3.2 L-1109.3,-8.7 L-1108.1,-11.0 L-1106.0,-14.3 L-1101.7,-19.4 L-1103.1,-19.1 L-1104.5,-18.8 L-1105.7,-20.4 L-1106.3,-22.2 L-1106.7,-18.2 L-1107.1,-15.4 L-1107.9,-13.5 L-1110.0,-9.5 L-1111.2,-8.0 L-1112.1,-9.4 L-1111.4,-11.9 L-1110.2,-13.8 L-1110.0,-16.5 L-1111.1,-19.7 L-1111.8,-22.3 L-1112.1,-24.2 L-1112.1,-26.0 L-1111.9,-27.6 L-1111.4,-29.3 L-1110.7,-31.2Z M229.4,249.0 L232.7,247.8 L234.1,247.9 L231.8,249.9 L232.1,251.5 L230.5,253.2 L229.7,254.5 L230.3,255.8 L232.8,254.5 L235.3,254.8 L236.6,254.4 L241.7,248.9 L237.2,249.3 L239.8,245.7 L239.5,244.1 L241.1,241.7 L242.6,240.2 L245.1,238.6 L246.5,241.9 L249.1,241.6 L251.7,242.0 L253.6,242.9 L253.9,244.2 L253.2,245.7 L254.3,248.4 L250.6,250.8 L248.7,252.5 L246.9,254.7 L243.4,257.1 L237.8,258.9 L236.1,258.9 L234.0,258.4 L231.9,258.5 L229.9,259.2 L227.9,259.1 L226.0,259.4 L223.5,256.7 L222.7,255.4 L221.9,249.1 L222.1,245.7 L223.5,242.6 L225.6,240.5 L226.8,238.9 L231.8,229.1 L232.8,226.8 L234.0,224.9 L236.2,223.1 L238.9,219.9 L241.4,218.9 L243.0,219.1 L242.7,221.4 L244.5,225.8 L243.5,230.1 L241.5,235.7 L241.1,238.9 L240.5,241.4 L236.4,244.8 L234.8,245.3 L233.2,246.2 L229.4,249.0Z M112.4,270.8 L110.7,270.2 L109.2,270.9 L107.7,270.7 L106.0,268.6 L105.8,266.9 L106.5,265.0 L106.0,263.7 L105.2,262.2 L106.6,260.7 L106.4,258.6 L104.5,258.3 L103.2,258.1 L102.0,257.4 L100.6,256.2 L99.2,255.1 L99.4,253.2 L99.8,251.8 L99.7,250.5 L99.6,248.7 L99.5,246.2 L99.4,241.5 L99.4,237.9 L99.3,233.4 L99.3,230.0 L99.2,225.4 L99.2,221.0 L99.1,216.9 L96.6,214.5 L93.5,211.5 L90.8,209.5 L89.3,209.2 L88.0,210.3 L86.0,211.1 L82.4,212.1 L79.2,213.5 L77.1,213.3 L75.9,212.5 L74.7,209.7 L74.9,207.2 L73.1,206.7 L71.2,206.2 L70.0,207.9 L68.9,209.3 L66.8,212.5 L63.7,216.9 L62.0,219.4 L59.0,223.6 L56.3,227.4 L55.7,231.3 L55.2,235.0 L53.0,237.8 L51.6,240.3 L51.0,243.2 L50.6,245.8 L50.5,248.0 L50.7,250.1 L48.5,253.0 L48.3,254.8 L44.9,257.4 L42.8,260.1 L42.7,261.5 L43.0,262.8 L42.6,264.1 L40.9,264.2 L40.2,266.8 L39.0,268.2 L37.8,266.2 L35.9,266.9 L34.4,268.2 L33.1,268.3 L30.7,267.4 L28.9,270.0 L27.0,275.4 L18.9,275.4 L10.8,275.4 L2.7,275.4 L-5.4,275.5 L-13.5,275.5 L-21.6,275.5 L-29.7,275.5 L-34.2,275.5 L-32.3,274.4 L-26.5,270.3 L-22.3,268.8 L-16.7,264.5 L-12.7,263.6 L-11.3,259.1 L-10.9,257.8 L-9.0,254.2 L-6.8,251.3 L-5.0,247.1 L-1.7,244.5 L3.3,242.3 L7.9,237.5 L10.5,236.0 L12.9,234.9 L13.9,233.0 L15.5,231.9 L19.5,229.6 L24.0,229.0 L28.5,227.1 L31.9,226.1 L34.1,224.3 L37.2,223.4 L46.4,218.3 L48.9,215.9 L52.2,211.0 L55.1,208.6 L56.1,205.9 L60.3,201.6 L64.6,196.0 L66.8,191.9 L70.0,189.7 L76.2,183.3 L79.5,180.7 L80.9,180.4 L84.6,178.1 L87.0,175.7 L90.7,173.3 L97.5,170.4 L103.9,166.9 L112.5,163.8 L122.6,159.2 L130.8,156.8 L136.5,156.4 L143.5,155.3 L146.0,155.4 L156.9,157.4 L162.1,159.9 L168.1,165.0 L168.9,166.4 L169.1,168.3 L165.9,167.3 L163.2,167.3 L165.1,168.3 L168.4,171.5 L168.2,175.5 L166.4,179.1 L160.8,180.8 L159.4,182.2 L158.3,184.6 L154.5,186.5 L153.0,188.0 L148.7,190.4 L146.7,190.7 L144.4,190.1 L139.0,187.9 L135.7,185.7 L134.0,186.9 L132.6,188.1 L129.4,187.7 L127.9,188.2 L125.5,187.6 L120.6,190.4 L122.0,190.7 L125.9,189.1 L127.3,189.3 L130.2,191.3 L137.2,193.5 L139.0,195.0 L140.7,199.6 L144.3,199.8 L147.0,197.6 L149.3,196.3 L153.7,195.3 L152.8,196.8 L156.2,196.7 L159.5,198.8 L158.2,200.2 L156.6,203.1 L155.4,208.8 L152.0,212.6 L147.5,216.4 L150.0,217.8 L152.9,216.7 L154.8,216.8 L157.0,217.5 L156.3,220.4 L155.5,222.4 L156.0,224.2 L157.3,227.7 L159.0,228.5 L159.7,233.0 L160.7,235.4 L160.5,237.4 L162.3,238.6 L162.6,240.6 L169.0,241.2 L170.3,242.0 L174.8,242.7 L176.4,244.4 L172.1,246.8 L175.6,248.6 L178.9,251.4 L181.6,250.9 L185.6,252.7 L186.9,254.4 L188.4,254.2 L190.5,253.5 L194.3,253.7 L198.4,254.7 L198.1,256.3 L200.6,257.0 L202.6,258.1 L203.8,256.9 L207.8,255.0 L212.9,251.1 L213.8,253.1 L214.4,255.5 L216.4,257.1 L218.7,257.5 L221.9,256.2 L223.2,257.3 L224.7,259.4 L226.1,262.2 L224.2,264.0 L222.5,265.3 L229.4,265.8 L230.9,267.4 L229.5,269.0 L228.3,268.4 L226.0,269.0 L224.0,270.4 L221.8,271.2 L220.4,271.3 L218.9,271.9 L217.5,272.9 L216.0,273.2 L211.5,275.8 L206.9,277.4 L202.0,280.0 L197.1,281.7 L192.0,283.7 L189.6,283.7 L186.6,285.7 L185.2,285.4 L183.7,285.8 L182.0,285.3 L181.7,286.6 L182.0,288.5 L180.7,290.3 L177.8,290.1 L175.3,288.4 L174.6,286.8 L173.2,285.6 L172.3,287.2 L171.2,290.1 L169.9,287.3 L167.6,288.3 L166.6,291.3 L167.8,294.4 L165.8,295.2 L164.0,298.6 L161.9,299.8 L159.7,303.2 L157.1,305.8 L156.4,307.5 L152.0,311.5 L150.4,311.4 L149.1,311.5 L147.3,313.2 L147.0,316.5 L145.4,316.2 L144.3,317.4 L142.7,316.4 L140.8,316.9 L139.3,316.2 L137.5,311.3 L136.5,309.6 L134.7,309.0 L133.5,311.1 L131.8,309.1 L130.5,301.6 L130.5,299.8 L132.3,293.4 L136.8,287.8 L135.4,287.6 L131.4,291.5 L132.5,289.6 L133.8,288.0 L135.9,286.5 L138.6,285.6 L140.4,285.5 L141.7,284.6 L143.6,283.1 L142.3,283.3 L139.5,284.1 L140.9,282.4 L155.6,272.2 L158.5,270.5 L164.4,268.4 L165.2,267.0 L166.7,266.9 L166.2,268.9 L166.0,270.3 L166.3,271.7 L168.6,272.4 L170.5,275.0 L169.6,271.5 L171.3,269.5 L178.0,266.8 L183.6,266.6 L185.4,265.3 L180.6,264.5 L175.0,264.9 L171.5,264.0 L166.6,264.6 L161.5,264.0 L159.9,264.8 L158.6,266.5 L157.0,265.7 L155.4,265.0 L157.1,262.2 L162.3,258.0 L165.4,254.3 L167.0,252.0 L165.3,252.3 L163.8,252.9 L162.7,251.2 L160.8,248.9 L161.6,252.7 L158.0,257.6 L155.7,258.0 L152.6,260.3 L148.2,262.3 L143.1,266.1 L136.5,269.3 L135.1,269.3 L132.1,266.7 L133.0,265.5 L133.7,263.8 L132.5,265.0 L130.7,266.2 L132.2,268.4 L129.4,270.3 L127.4,271.9 L125.7,272.9 L124.3,271.6 L120.5,273.3 L117.3,273.7 L116.4,271.5 L113.2,271.5Z M339.2,91.3 L337.8,94.1 L336.8,95.5 L333.9,96.3 L329.9,96.7 L328.1,97.1 L327.9,99.0 L328.7,100.8 L331.2,100.5 L332.7,101.7 L332.9,104.0 L332.6,105.5 L331.2,109.0 L329.5,111.0 L327.2,112.6 L326.4,113.9 L326.1,116.3 L324.9,118.1 L321.3,122.8 L319.9,123.9 L319.3,127.0 L318.2,128.8 L315.2,132.9 L314.5,134.4 L314.2,137.2 L313.4,139.3 L312.4,140.6 L312.6,142.4 L313.0,143.8 L312.7,145.5 L314.0,144.4 L316.8,140.6 L319.0,138.3 L320.4,137.5 L322.5,134.2 L323.9,132.1 L325.2,131.4 L326.3,132.8 L326.2,134.2 L325.5,135.8 L327.3,135.1 L330.1,134.1 L333.3,135.7 L335.0,135.6 L337.9,134.7 L337.9,136.4 L336.8,137.6 L334.2,139.4 L327.9,142.9 L326.0,145.3 L327.7,144.2 L329.1,143.7 L330.6,143.6 L330.8,146.4 L327.0,150.1 L332.3,148.3 L335.0,150.6 L338.6,149.8 L340.8,149.0 L341.3,150.5 L341.2,152.1 L342.5,151.8 L342.7,148.3 L344.1,149.2 L344.3,151.3 L343.8,153.4 L343.1,155.3 L341.5,158.1 L341.3,160.6 L343.3,159.4 L343.2,157.7 L344.7,155.9 L346.9,154.4 L348.5,155.2 L349.9,153.9 L351.2,153.1 L352.4,152.8 L353.6,151.9 L354.9,150.3 L356.3,149.0 L357.8,147.9 L358.3,149.6 L358.6,151.5 L358.6,153.2 L360.0,151.8 L361.4,150.8 L368.4,150.3 L370.3,150.8 L372.4,151.9 L375.0,153.7 L376.0,155.4 L376.2,157.4 L375.9,158.8 L374.0,160.6 L372.3,161.8 L371.0,164.2 L369.5,165.9 L364.5,168.8 L365.7,168.9 L368.6,168.3 L370.5,168.1 L369.8,169.4 L368.4,170.2 L369.8,171.7 L371.8,171.4 L373.5,171.8 L372.0,174.8 L371.6,176.2 L369.8,177.3 L366.3,179.2 L368.8,178.7 L370.5,178.4 L372.7,177.0 L374.5,176.6 L376.3,177.4 L379.1,175.2 L381.7,175.1 L384.6,173.2 L385.9,172.4 L386.6,174.9 L386.3,176.5 L384.4,179.7 L382.7,180.7 L381.2,180.6 L379.2,182.7 L376.7,184.5 L375.2,185.2 L376.5,188.0 L373.4,189.1 L370.1,190.5 L371.6,190.7 L374.4,190.3 L374.3,191.9 L373.5,193.2 L370.3,196.7 L370.8,198.7 L371.4,200.0 L374.0,200.9 L375.3,200.5 L377.3,198.2 L381.6,191.1 L385.4,189.1 L388.6,186.9 L389.5,188.4 L387.9,190.2 L387.1,191.7 L384.9,196.3 L384.1,198.5 L383.6,200.8 L383.7,204.8 L384.7,206.4 L385.9,205.6 L388.1,203.6 L389.5,201.7 L390.6,198.7 L392.0,197.5 L392.8,199.7 L393.4,201.7 L393.8,203.7 L393.5,206.0 L393.2,207.2 L388.8,216.3 L389.2,217.9 L389.2,219.9 L387.8,224.3 L386.4,227.0 L384.8,228.9 L382.9,228.8 L381.4,227.2 L379.6,227.3 L376.6,229.6 L375.1,228.2 L375.5,222.4 L375.7,220.4 L375.1,218.9 L375.8,216.4 L375.4,215.1 L373.5,216.6 L372.0,218.9 L370.3,220.9 L367.4,223.7 L366.1,224.3 L364.2,222.6 L364.6,220.1 L365.8,216.8 L368.2,211.8 L370.1,208.3 L370.5,206.8 L369.5,204.8 L368.8,201.0 L367.8,197.9 L366.7,196.5 L363.9,195.0 L363.1,197.4 L359.7,203.5 L359.2,206.2 L358.1,207.8 L356.7,208.6 L357.1,207.2 L358.6,204.1 L356.4,206.3 L354.9,207.7 L353.1,208.1 L350.9,208.4 L346.4,214.3 L346.2,216.3 L345.4,217.9 L343.2,220.9 L340.4,222.0 L338.8,221.5 L335.5,222.6 L332.8,223.0 L331.0,222.4 L329.7,221.2 L329.6,220.0 L330.3,218.7 L331.9,217.2 L333.1,216.6 L336.3,215.8 L338.6,214.7 L340.4,213.0 L344.4,206.5 L348.6,204.7 L350.7,203.1 L352.1,201.2 L350.3,201.5 L347.5,201.3 L344.3,200.9 L341.0,200.6 L340.1,203.7 L339.7,205.1 L338.5,205.8 L337.0,206.1 L333.1,205.2 L331.4,204.3 L327.1,205.1 L331.3,202.5 L331.7,197.0 L330.3,196.9 L328.3,197.7 L327.0,197.4 L324.4,200.3 L322.4,200.8 L319.8,201.8 L314.7,202.5 L310.2,203.0 L300.1,201.4 L296.4,201.6 L292.1,200.6 L285.2,200.3 L283.3,200.1 L283.5,198.9 L281.5,199.9 L279.9,200.8 L277.9,201.5 L271.5,202.8 L268.1,203.1 L266.1,202.2 L264.1,198.4 L263.3,194.8 L263.7,192.9 L265.1,191.1 L271.1,186.5 L276.0,181.8 L278.1,179.4 L280.0,178.5 L283.3,176.5 L280.2,176.5 L278.0,176.0 L275.8,175.8 L271.5,176.3 L267.1,176.3 L269.1,173.3 L273.5,170.0 L272.6,171.5 L272.8,173.4 L275.9,174.1 L277.3,169.9 L279.2,165.7 L280.2,162.7 L282.0,160.4 L283.6,160.5 L286.2,161.1 L288.9,163.2 L288.2,161.5 L288.9,157.7 L290.2,156.3 L287.9,156.3 L286.1,155.5 L285.6,154.2 L285.7,151.9 L286.3,150.5 L287.7,148.7 L289.5,147.5 L292.6,149.4 L293.9,149.0 L291.8,145.9 L291.2,144.0 L295.4,133.9 L297.4,129.0 L300.2,121.5 L302.3,118.1 L304.6,117.5 L304.1,116.3 L303.5,114.9 L304.6,113.6 L306.7,112.4 L308.2,110.4 L309.2,108.1 L308.5,106.5 L312.7,102.9 L314.1,98.7 L315.4,97.0 L316.7,96.2 L318.6,95.1 L324.7,92.6 L328.2,90.4 L330.6,90.5 L331.3,92.1 L334.7,93.1 L334.5,90.6 L338.0,89.6 L339.3,90.6Z M215.9,160.2 L207.8,160.6 L201.3,158.8 L196.5,158.0 L191.8,156.5 L181.6,151.5 L180.4,149.8 L179.4,147.7 L177.5,145.8 L175.4,144.3 L164.6,139.5 L163.7,137.8 L165.9,136.7 L168.4,136.2 L170.6,136.3 L177.8,138.1 L186.9,139.8 L190.9,141.0 L195.3,142.9 L199.7,145.2 L209.5,151.3 L211.2,151.8 L215.6,154.8 L217.2,157.1 L217.9,158.9 L215.9,160.2Z M176.8,234.2 L178.3,233.9 L179.3,231.6 L182.2,232.2 L183.7,233.2 L185.4,233.1 L187.0,234.4 L190.1,235.5 L193.3,235.3 L198.2,234.7 L203.8,233.9 L208.9,233.7 L210.6,234.3 L211.6,235.5 L208.7,237.4 L205.8,239.6 L201.8,241.7 L201.6,244.6 L201.5,246.6 L202.7,247.4 L197.6,248.3 L196.4,248.2 L195.0,247.4 L194.5,245.5 L192.7,245.8 L194.6,243.9 L193.5,241.9 L192.3,242.1 L191.6,239.8 L193.0,238.5 L191.5,239.1 L188.8,240.7 L187.3,241.8 L189.6,242.1 L187.2,243.1 L181.5,241.5 L180.1,240.9 L178.4,239.3 L177.0,237.0 L172.8,236.0 L171.0,235.4 L171.1,231.6 L168.6,229.6 L165.6,229.3 L165.3,227.9 L166.3,225.7 L167.7,223.8 L168.8,222.0 L170.1,220.5 L173.3,217.5 L173.2,219.7 L173.5,221.7 L171.4,225.5 L175.0,229.4 L175.8,231.3 L175.0,233.1 L176.4,233.5Z M255.1,305.5 L252.4,306.5 L250.2,306.4 L248.7,305.5 L252.2,305.5 L253.5,305.3 L256.2,303.7 L255.1,305.5Z M232.2,261.8 L230.0,260.5 L233.2,259.6 L232.4,261.1Z M213.7,211.2 L215.6,211.7 L215.3,212.9 L213.0,213.0 L213.5,207.2 L215.4,206.0 L219.3,202.5 L220.8,201.4 L222.3,201.0 L223.8,201.2 L222.2,203.3 L220.2,203.4 L218.2,205.1 L216.9,207.1 L215.3,208.2 L214.2,209.5 L213.7,211.2Z M163.3,194.2 L162.8,196.3 L161.1,198.0 L159.8,198.0 L160.2,194.9 L161.7,194.6 L163.3,194.2Z M163.9,192.2 L161.6,193.6 L162.6,191.4 L163.9,192.2Z M128.9,295.6 L129.4,293.1 L128.9,295.6Z M119.4,284.6 L116.8,286.1 L117.8,282.3 L119.8,281.5 L119.6,283.8Z M-12.9,262.4 L-14.4,262.9 L-16.9,262.4 L-19.8,263.1 L-18.4,261.1 L-15.2,259.8 L-12.0,255.8 L-12.3,260.2 L-12.6,261.8Z M-15.4,259.1 L-17.7,259.7 L-16.0,256.7 L-13.0,256.0 L-15.4,259.1Z M36.5,222.8 L34.8,223.0 L37.6,220.3 L39.4,219.3 L38.7,221.5 L36.5,222.8Z M337.7,114.3 L336.5,114.6 L336.4,112.6 L337.9,112.0 L338.4,113.7Z M356.8,146.2 L353.8,147.8 L352.3,148.8 L350.8,146.6 L352.3,146.1 L355.6,145.3 L357.1,145.3Z M341.1,81.3 L340.4,79.9 L341.4,78.7 L342.8,78.3 L342.4,80.2 L341.1,81.3Z M365.8,141.8 L367.2,143.6 L363.0,146.1 L362.0,144.2 L362.2,142.7 L363.7,143.4 L364.9,141.6Z M363.2,206.8 L361.3,207.7 L362.6,205.2 L363.2,203.3 L365.1,201.0 L364.7,203.0 L363.2,206.8Z" fill="#fff" stroke="#000" stroke-width="1"/><path d="M0.1,102.3 L-1.6,103.5 L-4.1,106.5 L-6.8,108.9 L-9.1,110.8 L-10.8,112.2 L-9.5,109.4 L-6.9,107.0 L-5.5,104.5 L-4.7,102.3 L-7.6,104.2 L-9.6,106.6 L-13.0,111.1 L-16.9,116.5 L-17.4,117.8 L-17.8,120.5 L-17.6,121.9 L-17.2,123.6 L-18.1,125.0 L-17.4,127.9 L-19.4,130.0 L-21.5,131.2 L-22.8,133.4 L-24.3,133.5 L-25.6,133.0 L-23.2,132.0 L-21.6,129.6 L-19.0,128.5 L-18.1,126.8 L-19.3,125.4 L-18.9,123.9 L-18.2,116.6 L-19.1,118.0 L-19.7,119.3 L-19.7,120.8 L-21.4,121.1 L-23.4,123.4 L-23.3,122.0 L-20.4,114.3 L-18.3,109.6 L-19.6,109.3 L-19.2,107.7 L-14.3,104.2 L-9.2,99.6 L-5.8,97.4 L-3.2,95.4 L-1.6,95.2 L-3.2,97.5 L0.3,96.4 L1.8,96.2 L1.0,97.8 L-3.2,100.6 L-3.3,101.9 L1.8,99.5 L3.5,99.2 L0.1,102.3Z M-9.1,299.6 L-9.7,302.3 L-9.0,307.3 L-8.8,310.0 L-9.7,307.6 L-10.2,303.7 L-10.6,301.5 L-10.5,298.4 L-8.7,295.9 L-9.2,292.7 L-10.5,285.8 L-9.6,282.0 L-9.3,277.4 L-8.6,275.1 L-7.9,276.9 L-7.4,278.1 L-5.8,275.0 L-4.7,273.6 L-4.0,275.3 L-5.6,276.8 L-5.3,279.2 L-5.6,283.9 L-6.0,287.3 L-7.0,288.5 L-6.3,289.9 L-6.3,291.3 L-7.1,292.6 L-7.5,294.8 L-8.2,297.2 L-9.1,299.6Z M16.5,178.2 L15.0,177.8 L12.9,174.8 L11.6,173.5 L11.2,172.2 L11.9,170.3 L14.5,169.7 L17.6,170.6 L19.4,171.8 L21.9,173.8 L22.0,175.2 L21.0,177.6 L19.1,178.5 L16.5,178.2Z M154.4,296.7 L153.7,298.7 L151.8,299.6 L150.3,299.4 L149.8,297.9 L150.5,296.6 L151.7,296.1 L152.2,297.4 L153.5,297.3Z M132.2,251.0 L130.6,250.8 L132.8,248.7 L133.3,247.1 L134.2,245.5 L135.8,244.8 L135.6,246.4 L134.7,248.3 L133.5,250.1 L132.2,251.0Z M54.9,150.4 L53.8,149.0 L53.8,146.9 L52.7,145.4 L51.0,144.7 L49.6,146.2 L50.0,147.6 L48.6,148.2 L47.4,147.8 L46.7,149.8 L46.4,151.2 L45.4,149.5 L44.1,149.7 L42.8,150.8 L41.8,149.1 L41.1,147.7 L39.9,148.0 L39.1,149.9 L38.2,151.3 L38.6,148.8 L39.8,145.9 L41.1,146.0 L42.6,148.0 L45.1,146.7 L46.5,145.0 L47.9,143.5 L49.9,143.9 L50.5,141.7 L49.5,139.3 L49.1,137.8 L50.9,139.9 L51.4,141.7 L51.9,143.1 L53.1,143.5 L54.5,143.4 L55.1,144.7 L56.1,146.0 L57.4,147.2 L59.5,149.5 L60.6,152.4 L59.3,153.2 L58.6,151.3 L58.3,150.1 L58.1,148.6 L56.8,148.2 L55.2,149.4Z M308.6,155.3 L309.5,153.5 L310.7,155.4 L308.8,156.8 L306.7,158.1 L304.6,161.2 L300.8,165.4 L299.3,166.8 L298.0,168.8 L294.5,172.1 L292.6,172.9 L290.8,172.4 L289.6,172.3 L294.1,169.2 L296.3,166.8 L298.3,165.8 L302.0,162.5 L304.0,160.0 L304.2,158.7 L307.0,156.1 L308.6,155.3Z M46.6,50.1 L48.0,50.7 L47.2,52.8 L47.4,54.5 L47.4,57.2 L47.8,59.1 L48.0,61.0 L46.3,59.0 L46.3,56.7 L45.0,55.9 L44.0,57.5 L42.8,56.4 L41.3,55.4 L41.4,53.9 L40.6,52.6 L39.0,54.3 L37.7,55.1 L37.4,53.6 L38.5,51.8 L40.2,51.6 L41.5,51.3 L41.5,49.8 L40.3,48.8 L41.9,48.9 L43.8,50.3 L45.8,49.8Z M31.3,314.1 L32.8,315.5 L32.5,316.8 L29.8,315.2 L28.4,314.3 L28.7,312.9 L29.3,311.6 L30.6,312.3 L31.3,314.1Z M319.3,182.6 L317.3,184.5 L314.9,185.9 L316.3,183.5 L317.3,182.0 L318.5,180.8 L319.3,182.6Z M90.4,95.2 L91.2,96.7 L91.0,98.9 L89.3,101.0 L88.5,102.2 L86.7,103.0 L85.1,104.3 L82.9,106.7 L81.0,114.4 L80.9,112.7 L81.1,110.9 L80.9,108.6 L80.2,106.3 L78.5,103.8 L76.0,101.3 L73.0,98.7 L72.5,97.3 L72.8,95.4 L73.3,91.8 L72.9,90.0 L71.1,87.2 L73.2,87.9 L74.0,86.4 L74.1,83.5 L75.1,87.4 L76.3,88.6 L78.7,86.1 L80.4,87.1 L81.8,86.9 L83.0,86.4 L83.8,85.1 L85.6,83.5 L86.5,81.5 L86.7,83.3 L86.0,86.6 L89.2,88.3 L90.5,87.1 L90.1,89.1 L90.2,90.3 L89.8,92.1 L90.4,95.2Z M84.9,95.3 L84.1,93.5 L86.2,95.1 L87.8,96.0 L87.4,93.9 L87.7,92.2 L85.9,89.7 L83.6,88.6 L81.3,88.6 L78.9,89.5 L76.7,91.3 L74.9,93.1 L73.9,94.8 L74.7,97.0 L75.6,98.5 L77.4,99.6 L78.5,100.8 L80.6,101.8 L82.1,102.0 L83.8,101.7 L86.3,100.4 L87.6,99.2 L85.8,96.6 L84.9,95.3Z M101.0,256.1 L103.1,257.6 L104.5,257.5 L105.8,257.5 L104.8,259.0 L102.6,258.6 L99.7,256.7 L98.0,254.8 L99.5,254.2 L101.0,256.1Z M233.3,62.7 L236.9,65.7 L238.2,68.1 L236.6,67.5 L235.6,66.2 L233.1,64.8 L228.6,61.6 L225.7,61.2 L228.8,60.7 L233.3,62.7Z" fill="url(#sea)" stroke="#000" stroke-width="1"/><g stroke="#000" stroke-width="1" stroke-dasharray="6 5"><line x1="-41.5" y1="72" x2="-41.5" y2="400"/><line x1="56.5" y1="72" x2="56.5" y2="400"/><line x1="154.5" y1="72" x2="154.5" y2="400"/><line x1="251.5" y1="72" x2="251.5" y2="400"/><line x1="348.5" y1="72" x2="348.5" y2="400"/><line x1="445.5" y1="72" x2="445.5" y2="400"/><line x1="0" y1="417.5" x2="470" y2="417.5"/><line x1="0" y1="276.5" x2="470" y2="276.5"/><line x1="0" y1="135.5" x2="470" y2="135.5"/></g><polyline points="235.0,236.0 230.4,238.3 225.8,240.7 221.2,243.1 216.7,245.5 212.1,247.9 207.6,250.3 203.1,252.7 198.6,255.2 194.1,257.6 189.6,260.1 185.1,262.6 180.7,265.1 176.2,267.6 171.8,270.1 167.4,272.6 163.0,275.2 158.6,277.7 154.3,280.3 149.9,282.9 145.6,285.5 141.3,288.1 136.9,290.7 132.6,293.4 128.4,296.0 124.1,298.7 119.8,301.3 115.6,304.0 111.4,306.7 107.1,309.4 102.9,312.1 98.8,314.8 94.6,317.6 90.4,320.3 86.3,323.1 82.1,325.9 78.0,328.7 73.9,331.4 69.8,334.2 65.7,337.1 61.7,339.9 57.6,342.7 53.6,345.6 49.5,348.4 45.5,351.3 41.5,354.2 37.5,357.1 33.5,360.0 29.6,362.9 25.6,365.8 21.7,368.7 17.8,371.7 13.8,374.6 9.9,377.6 6.1,380.5 2.2,383.5 -1.7,386.5 -5.5,389.5 -9.4,392.5 -13.2,395.5 -17.0,398.6" fill="none" stroke="#000" stroke-width="2" stroke-linejoin="round" stroke-dasharray="6 6"/><polyline points="1976.6,380.9 1976.6,380.9 1976.5,380.9 1976.5,380.9 1976.5,380.9 1976.5,380.9 1976.5,380.9 1976.5,380.8 1976.5,380.8 1976.5,380.8 1976.5,380.8 1976.4,380.8 1976.4,380.8 1976.4,380.8 1976.3,380.8 1976.3,380.8 1976.3,380.8 1976.3,380.8 1976.3,380.8 1976.3,380.9 1976.3,380.9 1976.3,380.9 1976.3,380.9 1976.2,380.9 1976.2,380.6 1976.2,379.8 1976.2,379.0 1976.3,378.3 1976.1,377.3 1975.8,376.5 1975.4,375.6 1974.8,374.4 1974.4,373.4 1974.0,372.6 1973.2,371.5 1972.6,371.0 1971.9,370.2 1970.8,369.1 1970.2,368.3 1969.6,367.5 1968.9,366.6 1968.2,365.7 1967.3,364.5 1966.3,363.3 1965.3,362.0 1964.3,360.8 1963.2,359.7 1961.9,358.7 1960.7,357.6 1959.4,356.6 1958.2,355.5 1956.9,354.4 1955.6,353.4 1954.2,352.2 1952.8,351.1 1951.3,349.9 1949.9,348.7 1948.4,347.4 1946.9,346.2 1945.5,345.0 1944.0,343.8 1942.5,342.6 1940.9,341.3 1939.4,340.1 1937.8,339.0 1936.2,338.0 1934.5,337.0 1932.9,335.9 1931.3,334.8 1929.7,333.7 1928.1,332.6 1926.5,331.5 1924.9,330.4 1923.4,329.3 1921.7,328.2 1920.2,327.2 1918.5,326.1 1916.9,325.0 1915.3,323.9 1913.6,322.8 1912.0,321.7 1910.4,320.6 1908.8,319.6 1907.1,318.5 1905.5,317.4 1903.9,316.3 1902.3,315.3 1900.7,314.2 1899.1,313.2 1897.5,312.1 1894.9,310.2 1893.6,308.8 1892.4,307.3 1891.2,305.7 1890.0,304.2 1888.8,302.7 1887.6,301.2 1886.4,299.6 1885.2,298.1 1884.0,296.6 1882.7,295.0 1881.5,293.5 1880.3,292.0 1879.1,290.5 1877.9,289.0 1876.6,287.5 1875.4,286.0 1874.2,284.5 1873.0,283.0 1871.8,281.5 1870.6,280.0 1869.4,278.5 1868.2,277.1 1866.9,275.6 1865.7,274.1 1864.5,272.7 1863.3,271.2 1862.1,269.7 1860.8,268.2 1859.6,266.7 1858.3,265.3 1857.1,263.8 1855.9,262.3 1854.6,260.8 1853.3,259.4 1852.1,257.9 1850.8,256.4 1849.6,254.9 1848.3,253.5 1847.0,252.0 1845.8,250.6 1844.5,249.1 1843.3,247.6 1842.0,246.2 1840.7,244.7 1839.5,243.2 1838.2,241.8 1836.9,240.4 1835.6,238.9 1834.3,237.4 1833.0,236.0 1831.8,234.5 1830.5,233.1 1829.2,231.6 1827.9,230.2 1826.7,228.8 1825.4,227.4 1824.1,225.9 1822.8,224.5 1821.5,223.0 1820.2,221.6 1818.9,220.1 1817.5,218.7 1816.2,217.2 1814.9,215.8 1813.6,214.4 1812.3,213.0 1811.0,211.6 1809.7,210.2 1808.4,208.7 1807.1,207.3 1805.7,205.9 1804.4,204.5 1803.1,203.1 1801.7,201.6 1800.4,200.2 1799.1,198.8 1797.7,197.4 1796.4,196.0 1795.1,194.6 1793.7,193.2 1792.4,191.8 1791.0,190.4 1789.7,189.1 1788.2,187.9 1786.7,186.7 1785.1,185.6 1783.6,184.4 1782.0,183.3 1780.5,182.1 1778.9,181.0 1777.4,179.8 1775.8,178.7 1774.3,177.5 1772.7,176.4 1771.1,175.2 1769.6,174.1 1768.0,173.0 1766.4,171.8 1764.9,170.8 1763.4,169.6 1761.8,168.5 1760.3,167.4 1758.7,166.4 1757.1,165.5 1755.4,164.7 1753.8,163.8 1752.1,162.9 1750.5,162.1 1748.8,161.3 1747.1,160.5 1745.4,159.7 1743.7,158.9 1742.0,158.1 1740.3,157.2 1738.6,156.4 1736.8,155.6 1735.1,154.8 1733.4,154.0 1731.7,153.2 1730.1,152.4 1728.4,151.7 1726.7,150.9 1725.0,150.1 1723.3,149.3 1721.6,148.5 1719.9,147.6 1718.3,146.7 1716.6,145.9 1715.0,145.0 1713.3,144.1 1711.6,143.2 1709.9,142.3 1708.2,141.5 1706.6,140.6 1704.9,139.7 1703.1,138.9 1701.4,138.0 1699.7,137.1 1698.0,136.2 1696.3,135.4 1694.6,134.5 1692.8,133.6 1691.1,132.8 1689.4,131.9 1687.6,131.0 1686.0,130.2 1684.2,129.4 1682.5,128.5 1680.8,127.7 1679.1,126.8 1677.3,126.0 1675.6,125.2 1673.9,124.3 1672.2,123.5 1670.5,122.7 1668.7,121.9 1667.0,121.0 1665.2,120.2 1663.4,119.3 1661.7,118.5 1659.9,117.7 1658.1,116.9 1656.3,116.0 1654.5,115.2 1652.7,114.3 1650.9,113.5 1649.1,112.7 1647.4,111.9 1645.5,111.1 1643.7,110.3 1641.9,109.4 1640.1,108.6 1638.3,107.8 1636.4,107.0 1634.5,106.1 1632.7,105.3 1630.9,104.5 1629.1,103.7 1627.2,102.9 1625.4,102.1 1623.5,101.3 1621.6,100.5 1619.7,99.6 1617.8,98.8 1616.0,98.0 1614.1,97.1 1612.2,96.3 1610.3,95.5 1608.4,94.7 1606.4,93.8 1604.5,93.0 1602.5,92.1 1600.6,91.3 1598.6,90.5 1596.7,89.7 1594.7,88.9 1592.7,88.0 1590.7,87.2 1588.8,86.4 1586.8,85.6 1584.8,84.8 1582.9,84.0 1580.8,83.1 1578.9,82.3 1576.9,81.5 1574.9,80.7 1572.9,79.9 1570.8,79.1 1568.9,78.3 1566.9,77.6 1564.9,76.8 1562.9,76.0 1560.9,75.2 1558.9,74.4 1556.9,73.7 1554.9,72.9 1552.9,72.1 1550.9,71.4 1548.9,70.6 1546.9,69.8 1544.9,69.1 1542.8,68.3 1540.8,67.6 1538.8,66.8 1536.8,66.1 1534.7,65.3 1532.7,64.6 1530.6,63.8 1528.5,63.1 1526.5,62.4 1524.4,61.6 1522.3,60.9 1520.2,60.1 1518.2,59.4 1516.0,58.6 1513.9,57.9 1511.8,57.2 1509.7,56.5 1507.6,55.7 1505.5,55.0 1503.4,54.3 1501.3,53.6 1499.2,52.9 1497.1,52.2 1495.0,51.5 1492.9,50.9 1490.8,50.3 1488.5,49.8 1486.4,49.3 1484.2,48.7 1482.0,48.2 1479.8,47.7 1477.7,47.2 1475.5,46.7 1473.3,46.1 1471.1,45.6 1469.0,45.0 1466.8,44.5 1464.6,44.0 1462.4,43.4 1458.7,42.6 1457.5,42.5 1455.3,42.2 1453.1,41.9 1450.9,41.4 1448.7,41.0 1446.5,40.5 1444.3,40.1 1442.1,39.6 1439.9,39.2 1437.8,38.8 1435.6,38.3 1433.4,37.9 1431.3,37.5 1429.1,37.0 1426.9,36.6 1424.7,36.2 1422.5,35.8 1420.3,35.4 1418.2,35.0 1415.9,34.5 1413.6,34.1 1411.5,33.7 1409.4,33.4 1407.3,33.0 1405.1,32.6 1403.0,32.2 1400.9,31.9 1398.8,31.5 1396.6,31.1 1394.5,30.7 1392.3,30.4 1390.1,30.0 1388.0,29.7 1385.8,29.3 1383.6,28.9 1381.5,28.6 1379.4,28.2 1377.2,27.9 1375.0,27.6 1372.9,27.2 1370.8,26.9 1368.6,26.6 1366.6,26.3 1364.5,25.9 1362.5,25.6 1360.4,25.3 1358.4,25.0 1356.3,24.7 1354.3,24.4 1352.2,24.1 1350.1,23.8 1348.1,23.2 1346.2,22.6 1344.2,21.9 1342.3,21.2 1340.2,20.6 1338.3,19.9 1336.3,19.2 1334.3,18.5 1332.3,17.9 1330.3,17.2 1328.3,16.6 1326.3,15.9 1324.3,15.2 1322.3,14.6 1320.3,13.9 1318.2,13.3 1316.3,12.7 1314.3,12.0 1312.3,11.4 1310.3,10.8 1308.3,10.1 1306.3,9.5 1304.4,8.9 1302.4,8.3 1300.4,7.7 1298.4,7.1 1296.4,6.5 1294.4,5.9 1292.5,5.3 1290.5,4.7 1288.5,4.1 1286.5,3.5 1284.5,2.9 1282.5,2.3 1280.5,1.7 1278.6,1.2 1276.6,0.6 1274.6,0.0 1272.6,-0.5 1270.6,-1.1 1268.8,-1.6 1266.8,-2.2 1264.8,-2.7 1262.8,-3.3 1260.9,-3.8 1258.9,-4.4 1256.9,-4.9 1254.9,-5.5 1252.9,-6.0 1250.9,-6.6 1248.9,-7.1 1246.9,-7.6 1245.1,-8.1 1243.0,-8.7 1241.1,-9.2 1239.2,-9.7 1237.3,-10.2 1235.4,-10.6 1233.4,-11.2 1231.4,-11.7 1229.3,-12.2 1227.5,-12.7 1225.5,-13.2 1223.5,-13.7 1221.6,-14.1 1219.6,-14.6 1217.6,-15.1 1215.6,-15.6 1213.6,-16.1 1211.5,-16.6 1209.5,-17.1 1207.5,-17.6 1205.4,-18.0 1203.5,-18.5 1201.5,-19.0 1199.5,-19.4 1197.6,-19.9 1195.5,-20.3 1193.6,-20.8 1191.8,-21.2 1189.8,-21.6 1187.9,-22.1 1185.8,-22.5 1183.9,-23.0 1181.9,-23.4 1179.9,-23.8 1178.0,-24.2 1176.0,-24.7 1174.0,-25.1 1171.9,-25.5 1169.9,-26.0 1167.9,-26.4 1165.9,-26.8 1163.9,-27.2 1161.9,-27.6 1160.8,-27.9 1157.2,-28.6 1154.6,-29.1 1153.4,-29.4 474.0,121.1 472.2,121.9 470.3,122.7 468.3,123.5 466.5,124.3 464.6,125.2 462.7,126.0 460.8,126.8 458.9,127.6 457.0,128.5 455.1,129.3 453.2,130.1 451.4,130.9 449.6,131.7 447.7,132.5 445.8,133.4 444.0,134.1 442.1,134.7 440.3,135.4 438.3,136.1 436.5,136.8 434.7,137.5 432.9,138.3 431.0,139.0 429.2,139.7 427.3,140.5 423.8,141.9 421.9,142.7 420.1,143.4 418.2,144.2 416.4,145.0 414.6,145.7 412.7,146.5 410.9,147.2 409.0,148.0 407.2,148.8 405.3,149.6 403.5,150.4 401.7,151.2 399.8,152.0 398.0,152.7 396.2,153.5 394.3,154.3 392.5,155.1 390.7,155.9 388.9,156.7 387.2,157.5 385.4,158.3 383.5,159.1 381.8,159.9 380.0,160.7 378.1,161.5 376.4,162.3 374.7,163.0 373.0,163.8 371.3,164.6 369.5,165.4 367.8,166.2 366.0,167.0 364.4,167.8 362.8,168.5 361.1,169.3 359.4,170.1 357.7,170.9 356.0,171.7 354.3,172.5 352.7,173.3 351.0,174.1 349.3,174.8 347.6,175.7 345.9,176.5 344.2,177.3 342.6,178.1 341.0,178.8 339.3,179.7 337.7,180.5 336.1,181.2 334.4,182.1 332.8,182.8 331.2,183.7 329.5,184.5 327.9,185.3 326.3,186.1 324.6,186.9 323.0,187.7 321.3,188.6 319.7,189.4 318.2,190.2 316.6,191.0 315.0,191.8 313.4,192.6 311.8,193.4 310.3,194.2 308.8,195.0 307.3,195.8 305.7,196.6 304.3,197.3 302.8,198.1 301.3,198.9 299.8,199.7 298.2,200.5 296.8,201.3 295.3,202.1 293.8,202.8 292.4,203.6 290.9,204.4 289.3,205.2 287.8,206.1 286.2,206.9 284.6,207.8 283.2,208.6 281.6,209.4 280.2,210.2 278.7,211.0 277.3,211.8 275.9,212.6 274.3,213.4 272.9,214.2 271.4,215.0 270.0,215.8 268.5,216.7 267.0,217.5 265.5,218.4 264.0,219.2 262.5,220.0 261.1,220.8 259.7,221.6 258.2,222.5 256.7,223.3 255.2,224.2 253.8,225.0 252.3,225.8 250.9,226.7 249.4,227.5 248.1,228.3 246.6,229.2 245.1,230.0 243.7,230.9 242.3,231.7 240.9,232.5 239.4,233.4 237.9,234.3 236.4,235.2 234.9,236.1" fill="none" stroke="#000" stroke-width="4" stroke-linejoin="round"/><g transform="translate(235.0,236.0) rotate(239)"><polygon points="0,-15 9.0,10.5 0,4.5 -9.0,10.5" fill="#000"/><circle r="19" fill="none" stroke="#000" stroke-width="2"/></g><circle cx="35.6" cy="350.8" r="2" fill="#000"/><text x="41" y="355" font-size="11" fill="#000" paint-order="stroke" stroke="#fff" stroke-width="3">Boston</text><circle cx="32.3" cy="223.7" r="2" fill="#000"/><text x="37" y="228" font-size="11" fill="#000" paint-order="stroke" stroke="#fff" stroke-width="3">Québec</text><circle cx="180.9" cy="285.5" r="2" fill="#000"/><text x="186" y="289" font-size="11" fill="#000" paint-order="stroke" stroke="#fff" stroke-width="3">Halifax</text><circle cx="393.3" cy="202.7" r="2" fill="#000"/><text x="398" y="207" font-size="11" fill="#000" paint-order="stroke" stroke="#fff" stroke-width="3">St. John&#x27;s</text><circle cx="60.8" cy="295.1" r="2" fill="#000"/><text x="66" y="299" font-size="11" fill="#000" paint-order="stroke" stroke="#fff" stroke-width="3">Augusta</text></g><rect x="0.5" y="72.5" width="469" height="327" fill="none" stroke="#000"/><text x="486" y="91" font-size="16" fill="#000">SINCE OFF</text><text x="486" y="134" font-size="44" font-weight="700">8:21</text><text x="638" y="91" font-size="16" fill="#000">TO GO est</text><text x="638" y="134" font-size="44" font-weight="700">1:48</text><rect x="487" y="159" width="296" height="14" fill="none" stroke="#000" stroke-width="2"/><rect x="486" y="158" width="245" height="16" fill="#000"/><text x="486" y="196" font-size="17">OFF 07:59 IST</text><text x="784" y="196" font-size="17" text-anchor="end">ETA 11:09 JFK</text><text x="486" y="225" font-size="16" fill="#000">GS</text><text x="486" y="260" font-size="34" font-weight="700">427 kt</text><text x="638" y="225" font-size="16" fill="#000">ALT</text><text x="638" y="260" font-size="34" font-weight="700">FL360</text><text x="486" y="292" font-size="17">V/S +0 fpm</text><text x="638" y="292" font-size="17">36 000 ft</text><text x="486" y="321" font-size="16" fill="#000">TRK</text><text x="486" y="356" font-size="34" font-weight="700">239°</text><text x="638" y="321" font-size="16" fill="#000">REMAINING</text><text x="638" y="354" font-size="30" font-weight="700">661 NM</text><text x="486" y="386" font-size="17">pos age 0 s</text><line x1="0" y1="402" x2="800" y2="402" stroke="#000" stroke-width="2"/><text x="16" y="430" font-size="21">46.40°N 60.82°W   fr24 0 s</text><text x="16" y="461" font-size="16">path: fr24 tracks 646 pts · route: fr24 · id: fr24 flight number</text><text x="784" y="461" font-size="16" text-anchor="end">upd 10.09 16:20</text></svg>